<?xml version="1.0" standalone="no"?>
<!DOCTYPE svg PUBLIC "-//W3C//DTD SVG 1.1//EN" "http://www.w3.org/Graphics/SVG/1.1/DTD/svg11.dtd" >
<!--
2013-9-30: Created.
-->
<svg>
<metadata>
Created by iconfont
</metadata>
<defs>

<font id="iconfont" horiz-adv-x="1024" >
  <font-face
    font-family="iconfont"
    font-weight="500"
    font-stretch="normal"
    units-per-em="1024"
    ascent="896"
    descent="-128"
  />
    <missing-glyph />
    
    <glyph glyph-name="wushuju" unicode="&#58946;" d="M156.662278 196.241827h21.097186A10.444152 10.444152 0 0 0 187.994733 185.797675c0-5.765172-4.490985-10.444152-10.235269-10.444152H156.662278v-21.097186A10.444152 10.444152 0 0 0 146.218126 144.021068a10.277045 10.277045 0 0 0-10.444152 10.235269V175.353523H114.676787A10.444152 10.444152 0 0 0 104.441518 185.797675c0 5.765172 4.490985 10.444152 10.235269 10.444152H135.773974v21.097187A10.444152 10.444152 0 0 0 146.218126 227.574283c5.765172 0 10.444152-4.490985 10.444152-10.235269v-21.097187z m1378.628042 83.553215v21.097186A10.277045 10.277045 0 0 1 1524.846168 311.127497a10.444152 10.444152 0 0 1-10.444152-10.235269v-21.097186h-21.097186a10.277045 10.277045 0 0 1-10.235269-10.444152c0-5.598065 4.595427-10.444152 10.235269-10.444152h21.097186v-21.097187c0-5.744284 4.67898-10.235269 10.444152-10.235268a10.444152 10.444152 0 0 1 10.444152 10.235268V258.906738h21.097187c5.744284 0 10.235269 4.67898 10.235268 10.444152a10.444152 10.444152 0 0 1-10.235268 10.444152H1535.29032zM776.460024-64.861969H250.596979A20.80475 20.80475 0 0 0 229.77134-43.973665c0 11.530344 9.462402 20.888304 20.825639 20.888303h94.728457A83.010119 83.010119 0 0 0 334.212859 18.586804v605.96969A83.49055 83.49055 0 0 0 417.849627 708.005267H480.430984V728.998012A83.49055 83.49055 0 0 0 564.067752 812.446785h501.152182A83.448773 83.448773 0 0 0 1148.856702 728.998012v-605.969689c0-15.185797-4.052331-29.410732-11.133466-41.672166h115.554096c11.551232 0 20.909192-9.274407 20.909192-20.888304 0-11.530344-9.295295-20.888304-20.888304-20.888304H1002.638576v-20.992745c0-15.185797-4.052331-29.410732-11.133466-41.672166h11.196131c11.488567 0 20.825639-9.274407 20.825639-20.888303 0-11.530344-9.462402-20.888304-20.825639-20.888304h-109.893365c9.545955-16.000441 7.478013-36.972297-6.41271-50.863019a41.672166 41.672166 0 0 0-59.072122 0L776.460024-64.861969z m76.367638 41.776607h66.424806c22.977134 0 41.609501 18.59059 41.609501 41.881049V625.538244c0 22.559368-18.047494 40.690416-40.314426 40.690416H416.303892c-22.266932 0-40.314426-18.214601-40.314426-40.690416v-606.742557c0-23.123352 18.799473-41.881049 41.588613-41.881049h317.084449l-10.736588 10.757477a41.693054 41.693054 0 0 0-10.861918 40.377091l-19.718558 19.739447A146.259902 146.259902 0 0 0 502.363703 268.306475a146.218126 146.218126 0 0 0 220.517822-190.981761l19.739447-19.739447a41.630389 41.630389 0 0 0 40.377091-10.841029L852.827662-23.085362zM1002.638576 81.356157h62.852906A41.797496 41.797496 0 0 1 1107.080095 123.132764V728.893571c0 23.14424-18.632367 41.776607-41.588613 41.776607H563.775316A41.797496 41.797496 0 0 1 522.207592 728.893571v-20.888304h396.794216A83.448773 83.448773 0 0 0 1002.638576 624.556494V81.356157zM266.325872 849.001317h31.123572c8.773088 0 15.875111-6.955805 15.875111-15.666228 0-8.647758-7.102023-15.666228-15.875111-15.666228h-31.123572v-31.123572c0-8.773088-6.955805-15.875111-15.666228-15.875111a15.770669 15.770669 0 0 0-15.666228 15.875111V817.668861H203.869844A15.728893 15.728893 0 0 0 187.994733 833.335089c0 8.647758 7.102023 15.666228 15.875111 15.666228h31.123572V880.124889c0 8.773088 6.955805 15.875111 15.666228 15.875111 8.647758 0 15.666228-7.102023 15.666228-15.875111v-31.123572zM20.888304-43.973665c0 11.530344 9.462402 20.888304 20.825638 20.888303h125.455152c11.488567 0 20.825639-9.274407 20.825639-20.888303 0-11.530344-9.462402-20.888304-20.825639-20.888304H41.713942A20.80475 20.80475 0 0 0 20.888304-43.973665z m658.733544 135.021995a104.441518 104.441518 0 1 1-147.722083 147.722083 104.441518 104.441518 0 0 1 147.722083-147.722083zM459.542681 582.675445a20.888304 20.888304 0 0 0 20.867415 20.888304H710.202325a20.888304 20.888304 0 1 0 0-41.776608H480.430984A20.825639 20.825639 0 0 0 459.542681 582.675445z m0-104.441518c0 11.530344 9.295295 20.888304 20.742085 20.888303h334.505295c11.44679 0 20.742086-9.274407 20.742086-20.888303 0-11.530344-9.295295-20.888304-20.742086-20.888304H480.284766A20.762974 20.762974 0 0 0 459.542681 478.233927z m0-104.441519c0 11.530344 9.316183 20.888304 20.846527 20.888304h146.301679c11.509455 0 20.846527-9.274407 20.846527-20.888304 0-11.530344-9.316183-20.888304-20.846527-20.888303h-146.301679A20.80475 20.80475 0 0 0 459.542681 373.792408zM62.664911 499.12223a62.664911 62.664911 0 1 0 0 125.329822 62.664911 62.664911 0 0 0 0-125.329822z m0 31.332456a31.332456 31.332456 0 1 1 0 62.664911 31.332456 31.332456 0 0 1 0-62.664911zM1357.739739 624.452052a62.664911 62.664911 0 1 0 0 125.329822 62.664911 62.664911 0 0 0 0-125.329822z m0 31.332456a31.332456 31.332456 0 1 1 0 62.664911 31.332456 31.332456 0 0 1 0-62.664911z"  horiz-adv-x="1567" />

    
    <glyph glyph-name="icon-lock" unicode="&#58883;" d="M709.74062 467.909062c-15.576767 0-28.237111 12.502755-28.237111 28.008914L681.503509 602.72556c0 96.991008-68.984141 172.957167-170.576957 172.957167-102.669334 0-168.505785-77.576843-168.505785-172.957167l0-106.807584c0-15.505136-12.58462-28.008914-28.237111-28.008914-15.578814 0-28.239158 12.502755-28.239158 28.008914L285.944498 602.72556c0 126.227889 91.160209 228.970902 224.982054 228.970902 133.283586 0 227.052203-100.595093 227.052203-228.970902l0-106.807584C737.977731 480.41284 725.394135 467.909062 709.74062 467.909062L709.74062 467.909062zM766.29159-63.696462L257.706363-63.696462c-62.382792 0-113.026216 50.183959-113.026216 111.951745L144.680147 383.96418400000005c0 61.768809 50.643424 111.953791 113.026216 111.953791l508.585227 0c62.307068 0 113.02724-50.184983 113.02724-111.953791l0-335.708901C879.319853-13.512503000000038 828.598658-63.696462 766.29159-63.696462L766.29159-63.696462zM822.766836 383.96418400000005c0 30.843472-25.322735 56.015781-56.475246 56.015781L257.706363 439.979966c-31.152511 0-56.55097-25.172309-56.55097-56.015781l0-335.708901c0-30.847565 25.39846-55.936987 56.55097-55.936987l508.585227 0c31.152511 0 56.475246 25.089421 56.475246 55.936987L822.766836 383.96418400000005 822.766836 383.96418400000005zM511.998977 216.14708399999995c-31.230282 0-56.551994 25.016767-56.551994 55.936987 0 30.927383 25.320689 55.94415 56.551994 55.94415 31.153534 0 56.476269-25.016767 56.476269-55.94415C568.475246 241.16385100000002 543.152511 216.14708399999995 511.998977 216.14708399999995L511.998977 216.14708399999995zM511.998977 104.19533999999999c-15.652492 0-28.312836 12.506848-28.312836 28.005844L483.686141 244.07618000000002c0 15.504112 12.660344 28.006867 28.312836 28.006867 15.576767 0 28.237111-12.502755 28.237111-28.006867L540.236088 132.201184C540.237111 116.70218799999998 527.575744 104.19533999999999 511.998977 104.19533999999999L511.998977 104.19533999999999z"  horiz-adv-x="1024" />

    
    <glyph glyph-name="eye" unicode="&#59279;" d="M942.2 409.8C847.4 609.5 704.1 710 512 710c-192.2 0-335.4-100.5-430.2-300.3-7.7-16.2-7.7-35.2 0-51.5C176.6 158.5 319.9 58 512 58c192.2 0 335.4 100.5 430.2 300.3 7.7 16.2 7.7 35 0 51.5zM512 130c-161.3 0-279.4 81.8-362.7 254C232.6 556.2 350.7 638 512 638c161.3 0 279.4-81.8 362.7-254C791.5 211.8 673.4 130 512 130zM508 560c-97.2 0-176-78.8-176-176s78.8-176 176-176 176 78.8 176 176-78.8 176-176 176z m0-288c-61.9 0-112 50.1-112 112s50.1 112 112 112 112-50.1 112-112-50.1-112-112-112z"  horiz-adv-x="1024" />

    
    <glyph glyph-name="user" unicode="&#59310;" d="M858.5 132.4c-18.9 44.8-46.1 85-80.6 119.5-34.5 34.5-74.7 61.6-119.5 80.6-0.4 0.2-0.8 0.3-1.2 0.5C719.5 378 760 451.3 760 534c0 137-111 248-248 248S264 671 264 534c0-82.7 40.5-156 102.8-201.1-0.4-0.2-0.8-0.3-1.2-0.5-44.8-18.9-85-46-119.5-80.6-34.5-34.5-61.6-74.7-80.6-119.5C146.9 88.5 137 42 136-5.8c-0.1-4.5 3.5-8.2 8-8.2h60c4.4 0 7.9 3.5 8 7.8 2 77.2 33 149.5 87.8 204.3 56.7 56.7 132 87.9 212.2 87.9s155.5-31.2 212.2-87.9C779 143.3 810 71 812-6.2c0.1-4.4 3.6-7.8 8-7.8h60c4.5 0 8.1 3.7 8 8.2-1 47.8-10.9 94.3-29.5 138.2zM512 362c-45.9 0-89.1 17.9-121.6 50.4S340 488.1 340 534c0 45.9 17.9 89.1 50.4 121.6S466.1 706 512 706s89.1-17.9 121.6-50.4S684 579.9 684 534c0-45.9-17.9-89.1-50.4-121.6S557.9 362 512 362z"  horiz-adv-x="1024" />

    
    <glyph glyph-name="chayueyuanjuan" unicode="&#58977;" d="M1009.55022222-54.840888889999974l-78.96177777 78.96177778c7.62311111 11.37777778 14.22222222 23.43822222 19.56977777 36.18133333 11.15022222 26.28266667 16.83911111 54.272 16.83911111 82.944s-5.68888889 56.66133333-16.83911111 82.944c-10.69511111 25.37244445-26.05511111 48.128-45.62488889 67.69777778-0.34133333 0.34133333-0.79644445 0.68266667-1.13777778 1.13777778V754.91555555c0 76.57244445-62.23644445 138.80888889-138.80888888 138.8088889H141.08444445c-76.57244445 0-138.80888889-62.23644445-138.8088889-138.8088889v-659.9111111c0-76.57244445 62.23644445-138.80888889 138.8088889-138.8088889h510.74844444c6.144-3.41333333 12.51555555-6.48533333 19.11466666-9.216 26.28266667-11.15022222 54.272-16.83911111 82.944-16.8391111s56.66133333 5.68888889 82.944 16.8391111c12.17422222 5.12 23.89333333 11.37777778 34.816 18.65955556l79.30311112-79.30311111c16.15644445-16.15644445 42.55288889-16.15644445 58.70933333 0 16.04266667 16.15644445 16.04266667 42.66666667-0.11377778 58.82311111zM84.19555555 95.00444445000005V754.91555555c0 31.28888889 25.6 56.88888889 56.8888889 56.8888889h623.50222222c31.28888889 0 56.88888889-25.6 56.88888888-56.8888889v-409.6c-21.73155555 7.28177778-44.37333333 11.03644445-67.584 11.03644445-28.78577778 0-56.66133333-5.68888889-82.944-16.83911111-25.37244445-10.69511111-48.128-26.05511111-67.69777777-45.62488889-19.56977778-19.56977778-34.92977778-42.32533333-45.62488889-67.69777778-11.15022222-26.28266667-16.83911111-54.272-16.83911111-82.944s5.68888889-56.66133333 16.83911111-82.944c3.18577778-7.62311111 6.82666667-15.01866667 10.92266666-22.18666667H141.08444445c-31.28888889 0-56.88888889 25.6-56.8888889 56.8888889z m538.39644445 48.24177777c0 72.59022222 58.82311111 131.18577778 131.29955555 131.18577778S885.19111111 215.72266666999997 885.19111111 143.13244444999998 826.368 11.946666670000013 753.89155555 11.946666670000013s-131.29955555 58.70933333-131.29955555 131.29955555zM207.07555555 593.3511111099999h500.62222223c22.528 0 40.96 18.432 40.96 40.96s-18.432 40.96-40.96 40.96H207.07555555c-22.528 0-40.96-18.432-40.96-40.96s18.432-40.96 40.96-40.96zM207.07555555 379.44888889000003h336.78222223c22.528 0 40.96 18.432 40.96 40.96s-18.432 40.96-40.96 40.96H207.07555555c-22.528 0-40.96-18.432-40.96-40.96s18.432-40.96 40.96-40.96zM461.93777778 247.46666667H207.07555555c-22.528 0-40.96-18.432-40.96-40.96s18.432-40.96 40.96-40.96h254.86222223c22.528 0 40.96 18.432 40.96 40.96s-18.432 40.96-40.96 40.96z"  horiz-adv-x="1024" />

    
    <glyph glyph-name="shenqing" unicode="&#58981;" d="M328.25283318-119.21938963000002H146.56398222c-55.39733808 0-100.466688 45.06934992-100.466688 100.466688V785.8436930299999c0 55.39733808 45.06934992 100.466688 100.466688 100.466688h652.20820386c55.39733808 0 100.46547437-45.06934992 100.46547437-100.466688v-234.48052621c0-21.44847645-17.3876717-38.83614815-38.83614815-38.83614815s-38.83614815 17.3876717-38.83614815 38.83614815V785.8436930299999c0 12.35596325-10.43842845 22.7943917-22.79317807 22.79439172H146.56398222c-12.35596325 0-22.7943917-10.43842845-22.7943917-22.79439172v-804.59518103c0-12.35596325 10.43842845-22.7943917 22.7943917-22.7943917h181.68885096c21.44847645 0 38.83614815-17.3876717 38.83614815-38.83614815s-17.3876717-38.83736178-38.83614815-38.83736178zM641.35471408 611.7375999999999H245.42625185c-21.44847645 0-38.83614815 17.3876717-38.83614815 38.83614815s17.3876717 38.83614815 38.83614815 38.83614815h395.92846223c21.44847645 0 38.83614815-17.3876717 38.83614814-38.83614815s-17.3876717-38.83614815-38.83614814-38.83614815zM587.95743763 421.50843733H245.73087289c-21.44847645 0-38.83614815 17.3876717-38.83614814 38.83614815s17.3876717 38.83614815 38.83614814 38.83614815h342.22656474c21.44847645 0 38.83614815-17.3876717 38.83614815-38.83614815s-17.3876717-38.83614815-38.83614815-38.83614815zM476.30957985 227.33861924999997h-229.3638637c-21.44847645 0-38.83614815 17.3876717-38.83614815 38.83614816s17.3876717 38.83614815 38.83614815 38.83614814h229.3638637c21.44847645 0 38.83614815-17.3876717 38.83614815-38.83614814s-17.3876717-38.83614815-38.83614815-38.83614816zM440.77329067-113.55902103000005l-3.83021512 177.94965806c-6.684672 21.12807822 3.46491259 42.8811757 15.72742637 56.64494934l319.35328711 358.47221096c8.93231408 10.027008 21.15477808 16.25535525 34.41246815 17.53694815 14.17033955 1.37018785 28.34917452-3.21611852 38.87134341-12.59019378l131.64361956-117.27788562c21.1474963-18.83917275 22.74706015-51.69455408 3.58506193-73.28745245l-80.18086875-90.88386845c-14.18975763-16.08544711-38.73298963-17.62068859-54.81479585-3.42971733-16.08423348 14.188544-17.62068859 38.731776-3.42971733 54.81479585l63.668224 72.1672723-92.54290015 82.444288-299.00557275-335.63291497a73.83722667 73.83722667 0 0 0 0.33010727-5.60454162l2.03282963-94.42766696 82.5838554 9.4905837a98.94479645 98.94479645 0 0 1 3.93944178 4.17731318l0.2742803 0.30462104 163.872768 180.10020978c14.43491082 15.86213925 38.99513363 17.02236918 54.8621274 2.588672 15.86335289-14.43612445 17.02236918-38.99756089 2.588672-54.8621274L660.96939615-64.82208236999998c-3.9855597-4.46372978-10.08404859-10.84984889-16.75901156-16.25778252-15.29173333-12.38751763-28.85040355-14.91914903-39.47937184-13.63634252l-163.95772208-18.84281362z m-2.55469037 174.43134578a0.24636682 0.24636682 0 0 1 0.01334992-0.03155438c-0.00606815 0.00970903-0.00970903 0.0206317-0.01334992 0.03155438zM865.16986311 189.86173629999996c-10.13987555 0-20.26882845 3.94672355-27.885568 11.80254815l-119.9842797 123.74774518c-14.9300717 15.39853275-14.55020563 39.98545541 0.84832711 54.91674074 15.39853275 14.92764445 39.98424178 14.55020563 54.91552711-0.84832712l119.9842797-123.74774517c14.9300717-15.39853275 14.55020563-39.98545541-0.84832711-54.91674075-7.54270815-7.31454578-17.29179497-10.95422103-27.02995911-10.95422103z"  horiz-adv-x="1024" />

    
    <glyph glyph-name="eye1" unicode="&#58880;" d="M720.229956 567.843212c0.364889-0.243259 0.608148-0.486519 0.973037-0.608148l49.868156 50.233044c-0.243259 0.243259-0.608148 0.486519-0.851408 0.729778l71.396603 71.761492c11.798076 11.919705 11.798076 31.13719-0.12163 43.056895-11.919705 11.798076-31.13719 11.798076-43.056895-0.12163l-80.397197-80.883715c-60.693194 32.718375-129.292315 49.260007-205.918992 49.260007-187.066397 0-326.332344-97.790236-418.649246-292.154413-7.541038-15.811854-7.541038-34.299561 0-50.111415C132.028982 277.269985 178.978026 212.80627200000004 234.197886 165.49233900000002l-87.816606-88.303124c-11.798076-11.919705-11.798076-31.13719 0.12163-43.056895 5.959853-5.959853 13.74415-8.878964 21.406818-8.878964 7.784297 0 15.568595 3.040741 21.528448 9.000593l94.141347 94.627866c0.364889-0.243259 0.608148-0.364889 0.973037-0.608148l50.962822 51.327711c-0.364889 0.243259-0.729778 0.364889-0.973037 0.608148L720.229956 567.843212zM399.127687 383.81755599999997c0 60.206675 48.773489 108.980164 108.980164 108.980163 15.203706 0 29.799264-3.162371 42.935266-8.757334L408.128281 340.274142c-5.838223 13.379261-9.000594 28.096449-9.000594 43.543414z m-240.096923 0c81.005345 167.605654 195.945362 247.151443 352.969236 247.151443 56.679416 0 107.763867-10.33852 153.861504-31.502079l-68.842381-69.207269c-25.907115 15.811854-56.314527 24.812448-88.911272 24.812448-94.627866 0-171.254543-76.626678-171.254543-171.254543 0-32.840005 9.243853-63.612305 25.420596-89.76268l-78.451122-78.937641C235.414182 255.49827800000003 194.060102 311.44791499999997 159.030764 383.81755599999997zM514.310963 275.080651L459.212733 219.73916099999997c15.446965-4.621927 31.866968-7.05452 48.773489-7.054519 94.627866 0 171.254543 76.626678 171.254543 171.254543 0 17.27141-2.554223 33.934672-7.297779 49.746526L616.844756 378.34422099999995c-2.797482-55.706378-47.070673-100.1012-102.533793-103.26357zM930.527616 408.873263c-32.231857 67.869343-70.180306 123.940611-113.84535 168.092172L767.30063 527.462169c36.853783-37.340302 69.328899-85.140753 97.546977-143.644613-81.005345-167.605654-195.823732-247.151443-352.969237-247.151444-41.718969 0-80.397197 5.594964-116.277942 17.028151l-54.368453-54.611712c51.6926-21.528448 108.493645-32.353486 170.646395-32.353486 187.066397 0 326.332344 97.790236 418.649246 292.154413 7.541038 15.690224 7.541038 34.056301 0 49.989785z"  horiz-adv-x="1024" />

    
    <glyph glyph-name="tuichu" unicode="&#58949;" d="M965.29066667 902.82666667H354.16746667c-30.03733333 0-54.61333333-24.576-54.61333334-54.61333334s24.576-54.61333333 54.61333334-54.61333333H910.67733333v-819.2H354.16746667c-30.03733333 0-54.61333333-24.576-54.61333334-54.61333333s24.576-54.61333333 54.61333334-54.61333334H965.29066667c30.03733333 0 54.61333333 24.576 54.61333333 54.61333334v928.42666666c0 30.03733333-24.576 54.61333333-54.61333333 54.61333334zM303.37706667 217.97546666999995L190.8736 329.38666666999995h421.61493333c30.03733333 0 54.61333333 24.576 54.61333334 54.61333333s-24.576 54.61333333-54.61333334 54.61333333H191.41973333l111.95733334 110.86506667c21.2992 21.2992 21.84533333 55.7056 0.54613333 77.0048-21.2992 21.84533333-55.7056 21.84533333-77.55093333 1.09226667L20.48 423.3216c-10.37653333-10.37653333-16.384-24.02986667-16.384-38.77546667s6.00746667-28.39893333 16.384-38.77546666l206.4384-204.8a54.66794667 54.66794667 0 0 1 77.0048 0 54.39488 54.39488 0 0 1-0.54613333 77.0048z"  horiz-adv-x="1024" />

    
    <glyph glyph-name="triangle-down" unicode="&#59039;" d="M256 512l256-320L768 512z"  horiz-adv-x="1024" />

    
    <glyph glyph-name="triangle-left" unicode="&#59040;" d="M674.816 637.44l-320-256 320-256z"  horiz-adv-x="1024" />

    
    <glyph glyph-name="triangle-up" unicode="&#59041;" d="M768 223.744l-256 320-256-320z"  horiz-adv-x="1024" />

    
    <glyph glyph-name="triangle-right" unicode="&#59042;" d="M352.256 128l320 256-320 256z"  horiz-adv-x="1024" />

    
    <glyph glyph-name="quanping3" unicode="&#58881;" d="M357.361 816.454V896H0v-357.361h79.546V760.654L314.62 524.986l56.394 56.394L135.346 816.454h222.015zM666.64 896v-79.546h222.015L652.986 581.38l56.394-56.394 235.074 235.668v-222.015H1024V896H666.639zM314.62 243.014L79.546 7.346V229.361H0V-128h357.361v79.546H135.346L371.014 186.62l-56.394 56.394z m629.834-235.668L709.38 243.014l-56.394-56.394 235.668-235.074H666.639V-128H1024V229.361h-79.546v-222.015z"  horiz-adv-x="1024" />

    
    <glyph glyph-name="tuichuquanping" unicode="&#58921;" d="M385.690843 294.04639199999997h0.125507a41.835647 41.835647 0 0 0 41.835648-41.835647v-250.483966a41.835647 41.835647 0 0 0-41.835648-41.835648h-0.125507a41.835647 41.835647 0 0 0-41.835647 41.835648V252.21074499999997a41.835647 41.835647 0 0 0 41.835647 41.835647zM132.822245 294.04639199999997h251.599584a41.835647 41.835647 0 1 0 0-83.545788H132.822245a41.835647 41.835647 0 0 0 0 83.545788zM414.180919 279.961724a41.68225 41.68225 0 0 0-0.96222-59.057989L72.048995-108.34280999999999a41.835647 41.835647 0 1 0-58.277057 59.964428l341.169704 329.302326a41.989045 41.989045 0 0 0 59.239277-0.96222zM638.224756 809.489459h0.139453a41.835647 41.835647 0 0 0 41.835647-41.835647V517.169845a41.835647 41.835647 0 0 0-41.835647-41.835647h-0.139453a41.835647 41.835647 0 0 0-41.835647 41.835647V767.653812a41.835647 41.835647 0 0 0 41.835647 41.835647zM639.619278 558.8799859999999h251.641419a41.835647 41.835647 0 0 0 41.835648-41.835648 41.835647 41.835647 0 0 0-41.835648-41.835647H639.619278a41.835647 41.835647 0 0 0-41.835647 41.835647 41.835647 41.835647 0 0 0 41.835647 41.835648zM609.860187 489.418866a41.668305 41.668305 0 0 0 0.96222 59.057989l341.239431 329.2326a41.835647 41.835647 0 1 0 58.291002-59.964428l-341.239431-329.288381a42.00299 42.00299 0 0 0-59.253222 0.96222zM129.740352 552.186282h250.497912a41.835647 41.835647 0 0 0 41.835647-41.835647v-0.139452a41.835647 41.835647 0 0 0-41.835647-41.835648H129.740352a41.835647 41.835647 0 0 0-41.835647 41.835648v0.139452a41.835647 41.835647 0 0 0 41.835647 41.835647zM380.238264 804.9991a41.835647 41.835647 0 0 0 41.835647-41.835648V511.591759a41.835647 41.835647 0 0 0-41.835647-41.835647 41.835647 41.835647 0 0 0-41.835647 41.835647V763.233178a41.835647 41.835647 0 0 0 41.835647 41.765922zM407.989243 481.860559a41.68225 41.68225 0 0 0-59.057989 0.96222L19.684709 824.048265a41.835647 41.835647 0 1 0 59.964428 58.291002l329.302326-341.239431a41.989045 41.989045 0 0 0-0.96222-59.239277zM645.197364 299.62447899999995h250.483967a41.835647 41.835647 0 0 0 41.835647-41.835648v-0.139452a41.835647 41.835647 0 0 0-41.835647-41.835647H645.197364a41.835647 41.835647 0 0 0-41.835647 41.835647v0.139452a41.835647 41.835647 0 0 0 41.835647 41.835648zM645.197364 298.229957a41.835647 41.835647 0 0 0 41.835648-41.835647v-251.64142a41.835647 41.835647 0 0 0-41.835648-41.835647 41.835647 41.835647 0 0 0-41.835647 41.835647V256.477981a41.835647 41.835647 0 0 0 41.835647 41.751976zM617.446385 286.16734499999995a41.668305 41.668305 0 0 0 59.057989-0.962219l329.246545-341.253377a41.835647 41.835647 0 1 0-59.964428-58.291002L616.484165 226.91412300000002a42.00299 42.00299 0 0 0 0.96222 59.253222z"  horiz-adv-x="1025" />

    
    <glyph glyph-name="fanhui" unicode="&#59050;" d="M645.12 720.384H314.88V872.448L0 649.728l314.88-206.848V600.576h337.92c173.056 0 270.336-167.936 268.288-292.864-2.048-131.072-89.6-293.376-268.288-293.376H271.36v-117.76h387.072c220.672 0 365.568 175.616 365.568 408.064 0 235.52-153.6 415.744-378.88 415.744z m5.12 0"  horiz-adv-x="1024" />

    
    <glyph glyph-name="tongjifenxi" unicode="&#58989;" d="M119.296 237.568c-25.088 0-45.568-20.48-45.568-45.568v-274.432c0-25.088 20.48-45.568 45.568-45.568s45.568 20.48 45.568 45.568v274.432c0 25.088-20.48 45.568-45.568 45.568z m261.632 292.864c-25.088 0-45.568-20.48-45.568-45.568V-81.92c0-25.088 20.48-45.568 45.568-45.568s45.568 20.48 45.568 45.568V484.352c0.512 25.088-19.968 46.08-45.568 46.08z m524.288 0c-25.088 0-45.568-20.48-45.568-45.568V-81.92c0-25.088 20.48-45.568 45.568-45.568s45.568 20.48 45.568 45.568V484.352c0 25.088-20.48 46.08-45.568 46.08z m-262.144-219.648c-25.088 0-45.568-20.48-45.568-45.568V-81.92c0-25.088 20.48-45.568 45.568-45.568s45.568 20.48 45.568 45.568v347.136c0 25.6-20.48 45.568-45.568 45.568zM978.432 896h-165.376c-25.088 0-45.568-20.48-45.568-45.568s20.48-45.568 45.568-45.568h54.272l-219.648-217.088-222.208 222.72c-16.896 16.896-44.544 17.408-61.952 1.536-0.512-0.512-1.024-1.024-2.048-1.536l-347.648-348.16c-17.92-17.92-17.92-46.592 0-64.512s46.592-17.92 64.512 0l315.392 315.392 219.648-219.648c1.024-1.024 1.536-2.048 2.56-2.56 6.656-6.656 14.848-10.752 23.552-12.8h2.048c13.824-2.048 27.648 2.56 37.888 11.776l0.512 0.512 252.928 249.856v-54.784c0-25.088 20.48-45.568 45.568-45.568s45.568 20.48 45.568 45.568V850.432c0.512 25.088-19.968 45.568-45.568 45.568z m0 0"  horiz-adv-x="1024" />

    
    <glyph glyph-name="shenyueshenpi" unicode="&#58990;" d="M956.47905-128h-885.903261c-20.365592 0-37.167206 16.292474-37.167206 36.658066s16.801614 36.658066 37.167206 36.658066h885.903261c20.365592 0 37.167206-16.292474 37.167206-36.658066s-16.801614-36.658066-37.167206-36.658066z m0 146.123124h-885.903261c-20.365592 0-37.167206 16.292474-37.167206 36.658066v182.78119c0 60.078497 49.895701 109.465058 110.992478 109.465058h236.240869c-7.637097 43.786023-29.530109 86.044627-61.096776 122.702693-42.258604 47.350002-64.660755 107.937639-64.660756 170.052695 0 69.243014 27.493549 135.431188 79.42581 184.81775 51.93226 49.386561 118.120435 73.316132 189.909147 71.279572C657.613984 890.279611 770.133881 777.250574 771.661301 645.383364c2.036559-65.679035-23.929571-129.83065-68.224734-179.217211-31.566668-33.094087-49.895701-73.316132-57.023658-118.629575h236.240869c61.096777 0 110.992478-49.386561 110.992478-109.465058V55.29033c0-20.365592-16.801614-37.167206-37.167206-37.167206zM107.233855 91.439256H919.311844v146.123124c0 19.856452-16.801614 36.658066-37.167206 36.658066h-276.972054c-20.365592 0-37.167206 16.292474-37.167205 36.658066 0 76.880111 27.493549 149.687103 79.425809 204.674202 33.094087 34.621507 49.895701 80.444089 49.895701 127.794091-2.036559 95.209144-81.462369 175.653233-177.180652 179.217212-51.93226 2.036559-99.791402-16.292474-134.922049-51.423121C349.075262 737.028529 328.70967 689.169388 328.70967 639.782826c0-43.786023 16.801614-87.572047 46.331722-120.666133 53.45968-60.587637 82.989788-133.394629 82.989789-208.238181 0-20.365592-16.801614-36.658066-37.167206-36.658066H144.401061c-20.365592 0-37.167206-16.292474-37.167206-36.658066v-146.123124z m0 0"  horiz-adv-x="1024" />

    
    <glyph glyph-name="shouye" unicode="&#58991;" d="M866.304 309.248c-18.944 0-32.768-12.288-32.768-29.696v-245.76c0-19.456-18.944-37.888-39.424-37.888H629.76c-18.944 0-32.768-12.288-32.768-29.696s13.824-29.696 32.768-29.696h164.352c57.856 0 104.96 43.52 104.96 97.28v245.76c0 8.192-3.072 15.36-8.704 20.992-6.144 5.632-14.336 8.704-24.064 8.704z m146.944 66.56l-477.696 447.488c-4.096 3.584-13.824 8.704-24.064 8.704s-19.968-5.12-24.064-8.704L10.752 375.808c-4.096-7.68-10.24-18.944-10.752-22.528 0-8.192 5.12-17.92 10.24-28.16 4.608-3.584 13.312-7.68 22.528-7.68 10.24 0 19.968 5.12 23.552 8.704L117.76 384v-349.184c0-53.76 47.104-97.792 104.96-97.792h170.496c18.944 0 32.768 12.288 32.768 29.696v196.608H629.76c18.944 0 32.768 12.8 32.768 29.696 0 17.408-13.824 29.696-32.768 29.696H393.728c-18.944 0-32.768-12.288-32.768-29.696v-191.488H229.888c-20.48 0-39.424 18.432-39.424 37.888V451.072L512 752.64l455.168-420.352c4.608-4.096 14.336-8.704 24.064-8.704 9.728 0 19.968 5.12 24.064 8.704 4.608 4.096 8.704 12.8 8.704 20.992-0.512 3.584-6.656 15.36-10.752 22.528z"  horiz-adv-x="1024" />

    
    <glyph glyph-name="bangzhu" unicode="&#58992;" d="M512 896c282.624 0 512-229.376 512-512s-229.376-512-512-512S0 101.376 0 384 229.376 896 512 896z m0-71.168c-114.688 0-222.72-45.568-303.616-126.976-80.896-80.896-136.192-199.68-136.192-314.368s55.296-232.96 136.192-314.368c80.896-80.896 188.928-125.952 303.616-125.952s232.96 55.296 314.368 136.192c80.896 80.896 125.952 188.928 125.952 303.616s-55.296 222.72-136.192 303.616-189.44 138.24-304.128 138.24zM314.368 499.712c1.536 48.128 3.584 84.48 13.824 109.568 10.24 25.088 24.064 47.616 46.08 67.072s46.592 34.304 73.728 43.52c27.136 9.216 55.296 13.824 85.504 13.824 60.928 0 110.08-20.992 150.528-56.832C721.408 643.584 737.28 594.432 737.28 537.6c0-26.624-4.096-50.688-14.336-72.704-10.24-21.504-25.088-48.64-58.88-80.896-33.792-32.256-55.808-55.296-67.072-69.12-10.752-13.824-19.456-30.208-25.088-49.152-5.632-18.944-7.68-18.944-7.68-28.672H476.16c0 12.8 3.072 19.456 9.216 41.984 6.144 22.528 14.848 41.984 27.136 58.368 11.776 16.896 33.792 40.96 65.024 73.728 31.232 32.256 51.712 55.808 60.416 70.656 9.216 14.848 13.312 36.352 13.312 65.536 0 29.184-10.24 54.784-31.232 77.312-20.48 22.528-50.688 33.28-90.112 33.28-88.576 0-133.12-52.736-133.12-158.208H314.368z m251.392-455.68H474.112v101.888h91.648v-101.888z m0 0"  horiz-adv-x="1024" />

    
    <glyph glyph-name="xitongguanli" unicode="&#58993;" d="M1009.927036 458.970515c-7.676162 9.723138-17.911044 16.375812-28.657671 20.469765l-98.766616 35.310345c-4.605697 13.305347-10.234883 26.610695-16.375812 39.404298l45.033483 94.672663c5.117441 10.234883 7.164418 22.516742 5.629185 34.286857-1.023488 12.281859-6.14093 23.54023-13.305347 32.23988l-60.385807 60.385807c-9.211394 7.164418-19.958021 11.770115-32.23988 13.305347-12.281859 1.535232-24.051974-1.023488-34.286857-5.629185l-94.672664-45.033483c-12.793603 6.14093-26.098951 11.770115-39.404297 16.375812l-35.310345 98.766616c-3.582209 10.746627-10.746627 20.981509-20.469765 28.657672-9.211394 7.676162-20.469765 12.281859-32.23988 13.817091H469.525237c-11.770115-1.535232-22.516742-5.629185-32.23988-13.817091-9.211394-7.676162-16.375812-17.3993-20.469765-28.657672l-35.310345-98.766616c-13.305347-4.605697-26.610695-10.234883-39.404297-16.375812L247.428286 782.904548c-10.234883 5.117441-22.516742 7.164418-34.286857 5.629185-12.281859-1.023488-23.54023-6.14093-32.23988-13.305347L120.003998 715.354323c-7.164418-9.211394-11.770115-20.469765-13.305347-32.23988-1.535232-12.281859 1.023488-24.051974 5.629185-34.286857l45.033483-94.672663c-6.14093-12.793603-11.770115-26.098951-16.375812-39.404298L42.730635 479.44028c-10.746627-3.582209-20.981509-10.746627-28.657671-20.469765-7.676162-9.211394-12.281859-20.469765-13.817092-32.23988v-84.949526c1.535232-11.770115 5.629185-22.516742 13.817092-32.23988 7.676162-9.211394 17.3993-16.375812 28.657671-20.469765l98.766616-35.310345c4.605697-13.305347 10.234883-26.610695 16.375812-39.404297L112.83958 119.172414c-5.117441-10.234883-7.164418-22.004998-5.629185-34.286857 1.023488-12.281859 6.14093-23.54023 13.305347-32.23988l60.385807-60.385807c9.211394-7.164418 20.469765-11.770115 32.23988-13.305347 12.281859-1.535232 24.051974 1.023488 34.286857 5.629185l94.672664 45.033483c12.793603-6.14093 26.098951-11.770115 39.404297-16.375812l35.310345-98.766616c3.582209-10.746627 10.746627-20.981509 20.469765-28.657672 9.211394-7.676162 20.469765-12.281859 32.23988-13.817091h84.949526c11.770115 1.535232 22.516742 5.629185 32.23988 13.817091 9.211394 7.676162 16.375812 17.3993 20.469765 28.657672l34.7986 98.766616c13.305347 4.605697 26.610695 10.234883 39.404298 16.375812l94.672664-45.033483c10.234883-5.117441 22.004998-7.164418 34.286857-5.629185 12.281859 1.023488 23.54023 6.14093 32.23988 13.305347l60.385807 60.385807c7.164418 9.211394 11.770115 19.958021 13.305347 32.23988 1.535232 12.281859-1.023488 24.051974-5.629185 34.286857l-45.033484 94.672663c6.14093 12.793603 11.770115 26.098951 16.375812 39.404298l98.766617 35.310345c10.746627 3.582209 20.981509 10.746627 28.657671 20.469765 7.676162 9.211394 12.281859 20.469765 13.817092 32.23988V426.218891c-1.023488 11.770115-5.117441 23.028486-13.305348 32.751624z m-50.150924-110.024988l-128.447776-45.545227-4.605697-15.352324c-6.14093-19.958021-14.328836-39.404298-24.051974-58.338831l-7.676162-14.328835 58.33883-122.818591c-15.352324-17.911044-31.728136-34.286857-49.63918-49.63918l-122.818591 58.33883-14.328835-7.676162c-18.934533-9.723138-38.38081-17.911044-58.338831-24.051974l-15.352324-4.605697-45.545227-128.447776a395.731734 395.731734 0 0 0-69.597202 0l-45.545227 128.447776-15.352324 4.605697c-19.958021 6.14093-39.404298 14.328836-58.33883 24.051974l-14.328836 7.676162-122.818591-58.33883c-17.911044 15.352324-34.286857 31.728136-49.63918 49.63918l58.338831 122.818591-7.676162 14.328835c-9.723138 18.934533-18.422789 38.38081-24.051974 58.338831l-4.605698 15.352324-128.447776 45.545227c-2.046977 23.028486-2.046977 47.08046 0 70.108946l128.447776 45.545227 4.605698 15.352324c6.14093 19.958021 14.328836 39.404298 24.051974 58.338831l7.676162 14.328835-59.362319 122.818591c15.352324 17.911044 31.728136 34.286857 49.63918 49.63918l122.818591-58.33883 14.328835 7.676162c18.934533 9.723138 38.38081 17.911044 58.338831 24.051974l15.352324 4.605697 45.545227 128.447776a395.731734 395.731734 0 0 0 69.597202 0l45.545227-128.447776 15.352324-4.605697c19.958021-6.14093 39.404298-14.328836 58.33883-24.051974l14.328836-7.676162 122.818591 58.33883c17.911044-15.352324 34.286857-31.728136 49.63918-49.63918l-58.338831-122.818591 7.676162-14.328835c9.723138-18.934533 17.911044-38.38081 24.051974-58.338831l4.605698-15.352324 128.447776-45.545227c3.070465-23.54023 3.070465-47.08046 1.023488-70.108946zM512 591.512244c-114.630685 0-207.768116-93.137431-207.768116-207.768116 0-114.630685 93.137431-207.768116 207.768116-207.768116 114.630685 0 207.768116 93.137431 207.768116 207.768116 0.511744 114.630685-92.625687 207.768116-207.768116 207.768116z m0-351.568216c-79.32034 0-143.8001 64.47976-143.8001 143.8001 0 79.32034 64.47976 143.8001 143.8001 143.8001 79.32034 0 143.8001-64.47976 143.8001-143.8001 0.511744-79.32034-64.47976-143.8001-143.8001-143.8001z"  horiz-adv-x="1024" />

    
    <glyph glyph-name="danganguanli" unicode="&#58994;" d="M1026.048 90.112c0-50.176-39.936-90.624-89.088-90.624H91.136c-49.152 0-89.088 40.448-89.088 90.624v242.176c-1.536 6.144 0 13.824 5.12 22.528l219.648 375.808c13.312 20.992 44.032 38.4 68.096 38.4h458.752c24.576 0 54.784-17.408 67.072-38.912l200.192-373.76c3.584-6.144 5.12-11.264 5.12-16.384v-249.856z m-979.456 271.36v-22.528 22.528z m0-271.36c0-25.088 19.968-45.056 44.544-45.056H936.96c24.576 0 44.544 20.48 44.544 45.056v226.304h-267.264v-90.624c0-25.088-19.968-45.056-44.544-45.056H358.4c-24.576 0-44.544 20.48-44.544 45.056v90.624H46.592v-226.304z m623.104 158.208v113.152H358.4v-113.152c0-12.288 9.728-22.528 22.016-22.528h267.264c12.288 0 22.016 10.24 22.016 22.528z m125.44 435.712c-12.288 21.504-42.496 38.912-67.072 38.912H319.488c-24.576 0-55.296-17.408-68.096-38.4l-181.248-323.072H961.536l-166.4 322.56zM224.768 451.584c0 12.288 9.728 22.528 22.528 22.528h534.528c12.288 0 22.016-10.24 22.016-22.528 0-12.288-9.728-22.528-22.016-22.528H246.784c-12.288 0-22.016 10.24-22.016 22.528z m512 68.096h-445.44c-12.288 0-22.016 10.24-22.016 22.528 0 12.288 9.728 22.528 22.016 22.528h445.44c12.288 0 22.016-10.24 22.016-22.528 0-12.288-9.728-22.528-22.016-22.528z m-44.544 90.624H335.872c-12.288 0-22.016 10.24-22.016 22.528 0 12.288 9.728 22.528 22.016 22.528h356.352c12.288 0 22.528-10.24 22.528-22.528-0.512-12.8-10.24-22.528-22.528-22.528z m0 0"  horiz-adv-x="1026" />

    
    <glyph glyph-name="jieyueguanli" unicode="&#58995;" d="M166.4 233.472h78.336v-77.824H166.4v77.824z m0 206.336h78.336v-77.824H166.4V439.808z m799.232-375.296c0-70.656-24.064-72.704-83.968-72.704H147.456c-72.704 0-83.968 5.632-83.968 83.456V629.248h833.536c78.336 0 69.12-29.696 69.12-83.456v-481.28zM63.488 744.448c0 48.128 16.896 40.96 88.064 40.96h253.952c108.544 0 136.192-24.064 157.184-59.392l14.848-37.376H63.488V744.448z m898.56-57.344h-317.44l-5.632 14.848c-37.376 103.936-110.08 130.048-164.352 132.096H63.488C28.16 834.048 0 805.888 0 772.608v-775.168c0-33.28 28.16-61.44 63.488-61.44H962.56c35.328 0 63.488 27.648 63.488 61.44V625.664c0 33.28-28.16 61.44-64 61.44z m-126.976-468.48H392.192c-12.8 0-24.064-11.264-24.064-24.064s11.264-24.064 24.064-24.064h442.88c12.8 0 24.064 11.264 24.064 24.064 0.512 12.8-10.752 24.064-24.064 24.064z m0 202.752H392.192c-12.8 0-24.064-11.264-24.064-24.064s11.264-24.064 24.064-24.064h442.88c12.8 0 24.064 11.264 24.064 24.064 0.512 14.848-10.752 24.064-24.064 24.064z m0 0"  horiz-adv-x="1026" />

    
    <glyph glyph-name="quanping" unicode="&#58996;" d="M431.616 100.352H285.184l147.456 147.456c15.872 15.872 15.872 41.984 0 58.368s-41.984 15.872-58.368 0l-146.432-146.432V307.2c0 22.528-17.92 40.448-40.448 40.96-23.04 0.512-41.984-18.944-41.984-41.984v-246.272c0-23.04 18.944-41.984 41.984-41.984h244.736c22.528 0 40.448 17.92 40.96 40.448 1.024 23.04-17.92 41.984-41.472 41.984z m403.456 648.704h-244.736c-22.528 0-40.448-17.92-40.96-40.448-0.512-23.04 18.944-41.984 41.984-41.984h146.432l-147.456-147.456c-15.872-15.872-15.872-41.984 0-58.368 15.872-15.872 41.984-15.872 58.368 0l146.432 146.432v-147.456c0-22.528 17.92-40.448 40.448-40.96 23.04-0.512 41.984 18.944 41.984 41.984V707.072c-0.512 23.04-19.456 41.984-42.496 41.984z m177.152 60.928c-7.168 16.384-16.896 31.744-29.696 44.544-12.8 12.8-27.648 23.04-44.544 29.696C920.576 891.392 902.656 894.976 883.712 894.976H139.264c-18.944 0-36.864-3.584-54.272-10.752-16.384-7.168-31.232-16.896-44.032-29.696s-23.04-27.648-29.696-44.544C3.584 792.576 0 774.656 0 755.712v-744.448c0-18.944 3.584-36.864 10.752-54.272 7.168-16.384 16.896-31.744 29.696-44.544 12.8-12.8 27.648-23.04 44.544-29.696 17.408-7.168 35.328-10.752 54.272-10.752h744.448c18.944 0 36.864 3.584 54.272 10.752 16.384 7.168 31.744 16.896 44.544 29.696 12.8 12.8 23.04 27.648 29.696 44.544 7.168 17.408 10.752 35.328 10.752 54.272V755.712c0 18.944-3.584 36.864-10.752 54.272z m-71.168-798.72c0-31.744-25.6-57.344-57.344-57.344H139.264c-31.744 0-56.832 25.6-56.832 57.344V755.712c0 31.744 25.6 57.344 56.832 57.344h744.448c31.744 0 57.344-25.6 57.344-57.344v-744.448z"  horiz-adv-x="1024" />

    
    <glyph glyph-name="shuaxin" unicode="&#58997;" d="M1015.828685 432.64h-75.776C913.940685 638.976 731.156685 793.6 512.020685 793.6c-83.968 0-164.864-23.04-234.496-66.048-12.288-6.144-20.48-17.92-20.48-32.256 0-19.968 16.896-35.84 37.888-35.84 8.704 0 16.384 2.56 23.04 7.68C375.828685 702.976 442.388685 721.92 512.020685 721.92c178.176 0 326.144-122.88 351.232-288.768h-83.456c-6.144 0-10.24-6.656-7.168-11.776l118.272-201.728c3.072-5.12 11.264-5.12 13.824 0l117.76 201.728c3.584 5.12 0 11.264-6.656 11.264z m-237.056-286.72c-8.192 0-15.872-2.56-22.016-6.656-0.512-0.512-1.024-0.512-1.024-1.024-1.536-1.024-2.56-2.048-4.096-3.584-65.536-56.832-149.504-88.064-238.592-88.064-195.584 0-354.816 151.04-354.816 337.408v8.704h86.528c6.656 0 10.24 6.144 7.168 11.776l-117.76 201.728c-3.072 5.632-11.264 5.632-13.824 0L1.044685 404.48c-3.072-5.12 1.024-11.776 7.168-11.776H81.940685v-8.704c0-225.792 193.024-409.6 430.592-409.6 111.104 0 216.064 39.424 296.448 112.128l-0.512 0.512c5.12 6.144 8.704 14.336 8.704 22.528-0.512 19.968-17.408 36.352-38.4 36.352z"  horiz-adv-x="1024" />

    
    <glyph glyph-name="tongzhi" unicode="&#58998;" d="M968.192 763.392c-2.048 0-4.608 0.512-6.656 0.512H64.512c-2.048 0-4.608 0-6.656-0.512C25.088 760.32 0 734.208 0 702.464v-645.632c0-34.304 28.672-61.952 64.512-61.952h896.512c35.84 0 64.512 27.648 64.512 61.952V702.464c0.512 31.744-24.576 57.856-57.344 60.928z m-65.536-60.928l-389.632-337.92-390.144 337.92h779.776zM64.512 652.288l281.088-243.2 14.848-12.8c-2.048-2.048-295.936-316.416-295.936-316.416V652.288z m81.92-595.968l272.384 289.792 93.696-80.384 0.512 0.512 0.512-0.512 93.696 80.384 272.384-289.792H146.432z m518.656 339.968l14.848 12.8 281.088 243.2v-572.416c0.512 0-293.888 314.368-295.936 316.416z m0 0"  horiz-adv-x="1025" />

    
    <glyph glyph-name="wenjianjia1" unicode="&#59000;" d="M958.464 446.464H191.488c-28.672 0-52.736-18.432-60.928-43.52l-67.072-201.728v558.08h319.488c0-69.12 57.344-124.928 128-124.928h319.488v-124.928h64V634.368c0 34.304-28.672 62.464-64 62.464H510.976c-35.328 0-64 28.16-64 62.464 0 34.304-28.672 62.464-64 62.464H64C28.672 822.272 0 794.112 0 759.296v-751.104c0-34.304 28.672-62.464 64-62.464h766.464c28.672 0 52.736 18.432 60.928 43.52l130.56 394.752c0 34.304-28.16 62.464-63.488 62.464z m-124.416-437.76H64L188.416 384h770.048l-124.416-375.296z m0 0"  horiz-adv-x="1024" />

    
    <glyph glyph-name="renyuan-nan" unicode="&#59001;" d="M828.928 130.048c-190.976 16.896-202.752 102.912-202.752 102.912v86.016c111.616 43.008 145.92 207.872 145.92 207.872 0 65.536-32.256 67.072-32.256 67.072V700.928c7.68 177.664-100.352 136.704-102.4 136.704-1.536 0-60.416 46.592-60.416 46.592-41.984 31.744-134.656-11.264-134.656-11.264h-4.096C333.824 870.4 306.688 794.624 306.688 794.624l2.048-196.608c-54.784 0-47.104-76.8-47.104-76.8 0-83.968 147.456-200.192 147.456-200.192 9.216-110.592-49.152-166.4-49.152-166.4s-100.352-3.584-214.016-37.376c-2.56-1.024-5.12-1.536-8.192-2.56C30.72 78.336 0-25.088 0-25.088v-100.864l463.872-2.048 68.608 2.048h491.52v78.848c2.048 115.712-195.072 177.152-195.072 177.152z m-244.736-129.024L513.024-128l-69.632 128.512-15.872 64 30.72 136.192h111.616l29.184-136.192-14.848-63.488z m0 0"  horiz-adv-x="1024" />

    
    <glyph glyph-name="renyuan-nv" unicode="&#59002;" d="M613.888 240.64v13.824h153.6V619.008C767.488 772.096 652.8 896 510.976 896c-141.312 0-256-123.904-256-276.992v-364.544h153.6v-13.824L35.84 3.584V-128h950.784v130.048L613.888 240.64z m7.68-228.864c-73.216-85.504-111.104 44.544-111.104 44.544s-37.888-130.048-111.104-44.544c0 0-32.256 25.088-35.84 194.048L510.464 56.32l146.944 149.504c-3.584-168.96-35.84-194.048-35.84-194.048z m0 0"  horiz-adv-x="1024" />

    
    <glyph glyph-name="shenhewanbiyiqueren" unicode="&#59003;" d="M182.272 669.184H650.24c19.968 0 36.352 16.384 36.352 36.352 0 19.968-16.384 36.352-36.352 36.352H182.272c-19.968 0-36.352-16.384-36.352-36.352 0-20.48 16.384-36.352 36.352-36.352z m0-279.04h259.584c19.968 0 36.352 16.384 36.352 36.352 0 19.968-16.384 36.352-36.352 36.352H182.272c-19.968 0-36.352-16.384-36.352-36.352 0-19.968 16.384-36.352 36.352-36.352z m0 139.776h480.768c19.968 0 36.352 16.384 36.352 36.352s-16.384 36.352-36.352 36.352H182.272c-19.968 0-36.352-16.384-36.352-36.352s16.384-36.352 36.352-36.352z m757.76-168.96c-26.624 26.112-56.832 46.592-90.624 60.928V779.264C848.896 843.776 796.672 896 732.16 896H117.76C52.736 895.488 0 843.264 0 779.264v-719.36c0-6.656 1.536-12.8 5.12-18.944 6.656-11.264 18.944-17.92 31.232-17.92 6.144 0 12.8 1.536 18.432 5.12l217.088 127.488c17.408 10.24 23.04 32.256 12.8 49.664-10.24 17.408-32.256 23.04-49.664 12.8L72.704 122.88V779.264c0 24.576 19.968 44.032 44.544 44.032h614.4c24.576 0 44.544-19.968 44.544-44.032v-336.896c-13.312 2.048-26.624 2.56-39.936 2.56-76.8 0-148.992-29.696-203.264-83.456C478.72 307.2 449.024 235.52 449.024 158.72c0-76.288 29.696-148.48 83.968-202.752 54.272-53.76 126.976-83.456 203.264-83.456 76.8 0 148.992 29.696 203.264 83.456 54.272 53.76 83.968 125.952 83.968 202.752 0.512 75.776-29.184 147.968-83.456 202.24z m-203.264-416.768c-118.784 0-215.04 95.744-215.04 214.016 0 117.76 96.256 214.016 215.04 214.016s215.04-95.744 215.04-214.016c0-117.76-96.768-214.016-215.04-214.016z m79.36 278.016L701.44 122.368l-53.76 51.2c-14.336 13.824-37.376 13.312-51.2-1.024-13.824-14.336-13.312-37.376 1.024-51.2l77.824-74.24c7.168-6.656 15.872-10.24 25.088-10.24 8.704 0 16.896 3.072 24.064 8.704l139.776 121.344c15.36 13.312 16.384 35.84 3.072 51.2-12.8 15.872-35.84 17.408-51.2 4.096z m0 0"  horiz-adv-x="1024" />

    
    <glyph glyph-name="shenheweisuoding" unicode="&#59004;" d="M477.696 221.696V128c0-20.48 15.36-36.864 34.304-36.864s34.304 16.384 34.304 36.864v93.696c33.792 16.896 52.224 56.832 44.032 95.744-8.192 38.912-40.96 66.56-78.336 66.56-37.376 0-69.632-27.648-77.824-66.56-8.192-38.912 9.728-78.336 43.52-95.744z m439.296 328.704H294.912c-1.024 8.192-2.56 16.384-2.56 25.088C292.352 696.32 392.704 793.6 516.096 793.6c68.608 0 129.024-30.72 169.984-78.336l1.024 0.512c9.728-11.776 24.064-19.968 40.448-19.968 29.184 0 52.736 23.04 52.736 51.2 0 10.752-4.096 21.504-10.752 29.696l0.512 0.512c-0.512 1.024-1.536 1.536-2.048 2.56-1.536 2.048-3.072 3.584-5.12 5.12C702.464 852.48 614.912 896 516.096 896 334.336 896 187.392 752.64 187.392 576c0-8.704 1.536-16.896 2.048-25.088H107.52c-41.472 0-75.264-32.768-75.264-73.216v-531.968c0-40.448 33.792-73.216 75.264-73.216h809.984c41.472 0 75.264 32.768 75.264 73.216V477.184c-0.512 40.448-34.304 73.216-75.776 73.216zM878.592-25.6H143.36V457.216h735.232V-25.6z m0 0"  horiz-adv-x="1024" />

    
    <glyph glyph-name="shenheyisuoding" unicode="&#59005;" d="M472.064 221.696V128c0-20.48 15.36-36.864 34.304-36.864s34.304 16.384 34.304 36.864v93.696c33.792 16.896 52.224 56.832 44.032 95.744-8.192 38.912-40.96 66.56-78.336 66.56-37.376 0-69.632-27.648-77.824-66.56-8.704-38.912 9.728-78.336 43.52-95.744z m438.784 328.704H289.28c-1.024 8.192-2.56 16.384-2.56 25.088C286.72 696.32 386.56 793.6 510.464 793.6c126.976 0 223.744-74.752 223.744-270.336l1.024 0.512c9.728-11.776 34.304-19.968 50.688-19.968 29.184 0 52.736 23.04 52.736 51.2C838.656 752.64 705.536 895.488 510.464 895.488 328.704 896 181.76 752.64 181.248 576c0-8.704 1.536-16.896 2.048-25.088h-81.92c-41.472 0-75.264-32.768-75.264-73.216v-531.968c0-40.448 33.792-73.216 75.264-73.216H911.36c41.472 0 75.264 32.768 75.264 73.216V477.184c-0.512 40.448-34.304 73.216-75.776 73.216zM872.96-25.6H137.728V457.216h735.232V-25.6z m0 0"  horiz-adv-x="1024" />

    
    <glyph glyph-name="shenhewanbiweiqueren" unicode="&#59006;" d="M182.272 390.144h259.584c19.968 0 36.352 16.384 36.352 36.352 0 19.968-16.384 36.352-36.352 36.352H182.272c-19.968 0-36.352-16.384-36.352-36.352 0-19.968 16.384-36.352 36.352-36.352z m0 279.04H650.24c19.968 0 36.352 16.384 36.352 36.352 0 19.968-16.384 36.352-36.352 36.352H182.272c-19.968 0-36.352-16.384-36.352-36.352 0-20.48 16.384-36.352 36.352-36.352z m757.76-308.224c-26.624 26.112-56.832 46.592-90.624 60.928V779.264C848.896 843.776 796.672 896 732.16 896H117.76C52.736 895.488 0 843.264 0 779.264v-719.36c0-6.656 1.536-12.8 5.12-18.944 6.656-11.264 18.944-17.92 31.232-17.92 6.144 0 12.8 1.536 18.432 5.12l217.088 127.488c17.408 10.24 23.04 32.256 12.8 49.664-10.24 17.408-32.256 23.04-49.664 12.8L72.704 122.88V779.264c0 24.576 19.968 44.032 44.544 44.032h614.4c24.576 0 44.544-19.968 44.544-44.032v-336.896c-13.312 2.048-26.624 2.56-39.936 2.56-76.8 0-148.992-29.696-203.264-83.456C478.72 307.2 449.024 235.52 449.024 158.72c0-76.288 29.696-148.48 83.968-202.752 54.272-53.76 126.976-83.456 203.264-83.456 76.8 0 148.992 29.696 203.264 83.456 54.272 53.76 83.968 125.952 83.968 202.752 0.512 75.776-29.184 147.968-83.456 202.24z m-203.264-416.768c-118.784 0-215.04 95.744-215.04 214.016 0 117.76 96.256 214.016 215.04 214.016s215.04-95.744 215.04-214.016c0-117.76-96.768-214.016-215.04-214.016zM182.272 529.92h480.768c19.968 0 36.352 16.384 36.352 36.352 0 19.968-16.384 36.352-36.352 36.352H182.272c-19.968 0-36.352-16.384-36.352-36.352 0-19.968 16.384-36.352 36.352-36.352z m553.984-209.92c-17.408 0-32.256-14.336-32.256-32.256v-128c0-17.92 14.336-32.256 32.256-32.256s32.256 14.336 32.256 32.256v128c-0.512 17.92-14.848 32.256-32.256 32.256z m0-256c-17.408 0-32.256-14.336-32.256-32.256s14.336-32.256 32.256-32.256 32.256 14.336 32.256 32.256-14.848 32.256-32.256 32.256z"  horiz-adv-x="1024" />

    
    <glyph glyph-name="liulan" unicode="&#59007;" d="M951.148259 890.905473H5.094527v-1018.905473h728.007961v72.851741H77.946269V818.053731h873.20199v-655.156219H1024V890.905473h-72.851741z m-145.703483-509.452737c0 159.968159-130.929353 290.897512-290.897512 290.897513S223.649751 541.420896 223.649751 381.452736s130.929353-290.897512 290.897513-290.897512c67.247761 0 128.891542 22.925373 178.308457 61.643781l280.199005-280.199005 50.945274 50.945274-280.199005 280.199005c38.718408 49.416915 61.643781 111.060697 61.643781 178.308457zM514.547264 162.897512c-123.797015 0-218.555224 94.758209-218.555224 218.555224 0 123.797015 94.758209 218.555224 218.555224 218.555224s218.555224-94.758209 218.555224-218.555224c0-123.797015-94.758209-218.555224-218.555224-218.555224z"  horiz-adv-x="1029" />

    
    <glyph glyph-name="shenhe" unicode="&#59008;" d="M954.84951-128h-885.69902c-20.47859 0-36.861462 16.382872-36.861462 36.349497 0 19.966625 16.382872 36.349497 36.861462 36.349498h886.210985c20.47859 0 36.861462-16.382872 36.861462-36.349498 0-19.966625-16.894837-36.349497-37.373427-36.349497z m0 146.421919h-885.69902c-20.47859 0-36.861462 16.382872-36.861462 36.349497v182.771416c0 60.411841 49.660581 109.560457 110.584386 109.560457H378.889165c-7.167507 44.028969-29.693956 86.010078-60.923806 122.359576-42.493074 48.124687-64.507559 108.024563-64.507558 170.484262 0 69.627206 27.646097 135.158694 79.354536 184.819275C384.520777 873.915018 451.076195 897.465397 523.263225 895.929502c133.110835-5.631612 245.743081-118.775822 247.278974-250.350763 2.047859-66.043453-24.062343-130.039047-68.091312-179.187663-31.22985-32.765744-49.660581-73.210959-57.340052-118.775822h236.527715c60.923805 0 110.584386-49.148616 110.584387-109.560457v-182.771416c0-20.47859-16.894837-36.861462-37.373427-36.861462zM106.011952 91.632878h812.48806v146.421919c0 19.966625-16.382872 36.349497-36.861462 36.349497H604.153655c-20.47859 0-36.861462 16.382872-36.861462 36.349498 0 76.794713 27.646097 150.005672 79.354537 204.7859 33.277709 34.813603 49.660581 80.378466 49.66058 127.991188-2.047859 95.225444-81.402395 175.60391-177.139803 179.187663-51.70844 2.047859-99.833126-16.382872-134.64673-51.196475-36.861462-34.813603-57.340052-82.426325-57.340052-131.574941 0-44.028969 16.382872-87.545972 46.076827-120.823681 53.756299-60.411841 82.93829-133.6228 82.93829-208.369654 0-19.966625-16.382872-36.349497-36.861462-36.349498h-276.460966c-20.47859 0-36.861462-16.382872-36.861462-36.349497v-146.421919z m0 0"  horiz-adv-x="1024" />

    
    <glyph glyph-name="saomiao" unicode="&#59009;" d="M46.592 523.776c-28.16 0-46.592 18.432-46.592 46.592V756.224C0 830.976 65.024 896 139.776 896h186.368c28.16 0 46.592-18.432 46.592-46.592s-18.432-46.592-46.592-46.592H139.776c-28.16 0-46.592-18.432-46.592-46.592v-186.368c0-27.648-18.944-46.08-46.592-46.08zM325.632-128H139.776C65.024-128 0-62.976 0 11.776v186.368c0 28.16 18.432 46.592 46.592 46.592s46.592-18.432 46.592-46.592v-186.368c0-28.16 18.432-46.592 46.592-46.592h186.368c28.16 0 46.592-18.432 46.592-46.592s-18.944-46.592-47.104-46.592z m558.592 0h-186.368c-28.16 0-46.592 18.432-46.592 46.592s18.432 46.592 46.592 46.592h186.368c28.16 0 46.592 18.432 46.592 46.592v186.368c0 28.16 18.432 46.592 46.592 46.592s46.592-18.432 46.592-46.592v-186.368c0-74.752-65.024-139.776-139.776-139.776z m93.184 651.776c-28.16 0-46.592 18.432-46.592 46.592V756.224c0 28.16-18.432 46.592-46.592 46.592h-186.368c-28.16 0-46.592 18.432-46.592 46.592s18.432 46.592 46.592 46.592h186.368C958.976 896 1024 830.976 1024 756.224v-186.368c0-27.648-18.432-46.08-46.592-46.08z m0-186.368H46.592c-28.16 0-46.592 18.432-46.592 46.592s18.432 46.592 46.592 46.592h930.816c28.16 0 46.592-18.432 46.592-46.592s-18.432-46.592-46.592-46.592z m0 0"  horiz-adv-x="1024" />

    
    <glyph glyph-name="jibenxinxi" unicode="&#59010;" d="M352.256 678.4h320c17.408 0 32.256 13.824 32.256 31.232 0 102.4-86.016 186.368-192 186.368S320.512 812.032 320.512 709.12c0-16.896 14.336-30.72 31.744-30.72z m160.256 155.136c59.392 0 110.08-39.424 123.904-93.184H388.608c13.824 53.248 64 93.184 123.904 93.184z m447.488-248.32v-558.08c0-85.504-71.68-155.136-160.256-155.136H224.256c-88.064 0-160.256 69.632-160.256 155.136v558.08c0 85.504 71.68 155.136 160.256 155.136 17.408 0 32.256-13.824 32.256-31.232 0-16.896-14.848-31.232-32.256-31.232-52.736 0-96.256-41.472-96.256-93.184v-558.08c0-51.2 43.008-93.184 96.256-93.184h576c52.736 0 96.256 41.472 96.256 93.184V585.216c0 51.2-43.008 93.184-96.256 93.184-17.408 0-32.256 13.824-32.256 31.232s14.848 31.232 32.256 31.232c88.064-0.512 159.744-70.144 159.744-155.648zM320.512 495.616c0 16.896 14.848 31.232 32.256 31.232h320c17.408 0 32.256-13.824 32.256-31.232 0-17.408-14.848-31.232-32.256-31.232H352.256c-17.408 0.512-31.744 14.336-31.744 31.232z m0-185.344c0 16.896 14.848 31.232 32.256 31.232h320c17.408 0 32.256-13.824 32.256-31.232 0-17.408-14.848-31.232-32.256-31.232H352.256c-17.408 0-31.744 13.824-31.744 31.232z m0-186.368c0 16.896 14.848 31.232 32.256 31.232h320c17.408 0 32.256-13.824 32.256-31.232s-14.848-31.232-32.256-31.232H352.256c-17.408 0-31.744 13.824-31.744 31.232z m0 0"  horiz-adv-x="1024" />

    
    <glyph glyph-name="mulu" unicode="&#59011;" d="M143.36 704H12.8c-7.168 0-12.8 9.216-12.8 20.48V819.712c0 6.656 5.632 12.288 12.8 12.288H143.36c7.168 0 12.8-5.632 12.8-12.288v-95.744c0-10.752-5.632-19.968-12.8-19.968z m868.352 0H306.688c-7.168 0-12.8 9.216-12.8 20.48V819.712c0 6.656 5.632 12.288 12.8 12.288h704.512c7.168 0 12.8-5.632 12.8-12.288v-95.744c0-10.752-5.632-19.968-12.288-19.968zM143.36 321.536H12.8c-7.168 0-12.8 9.216-12.8 20.48V435.2c0 7.68 5.632 13.312 12.8 13.312H143.36c7.168 0 12.8-6.144 12.8-13.312v-94.208c0-10.752-5.632-19.456-12.8-19.456z m868.352 0H306.688c-7.168 0-12.8 9.216-12.8 20.48V435.2c0 7.68 5.632 13.312 12.8 13.312h704.512c7.168 0 12.8-6.144 12.8-13.312v-94.208c0-10.752-5.632-19.456-12.288-19.456zM143.36-64H12.8c-7.168 0-12.8 5.632-12.8 12.288v95.744c0 11.264 5.632 20.48 12.8 20.48H143.36c7.168 0 12.8-9.216 12.8-20.48v-95.744c0-6.656-5.632-12.288-12.8-12.288z m868.352 0H306.688c-7.168 0-12.8 5.632-12.8 12.288v95.744c0 11.264 5.632 20.48 12.8 20.48h704.512c7.168 0 12.8-9.216 12.8-20.48v-95.744c0-6.656-5.632-12.288-12.288-12.288z m0 0"  horiz-adv-x="1024" />

    
    <glyph glyph-name="dayin" unicode="&#59012;" d="M702.976 261.632H325.632c-14.848 0-27.136-11.264-27.136-26.624 0-14.848 12.288-26.624 27.136-26.624h377.344c14.848 0 27.136 11.264 27.136 26.624-0.512 14.848-12.288 26.624-27.136 26.624z m0-156.672H325.632c-14.848 0-27.136-12.288-27.136-27.136s12.288-27.136 27.136-27.136h377.344c14.848 0 27.136 12.288 27.136 27.136s-12.288 27.136-27.136 27.136zM955.904 706.56h-121.344V804.864C834.56 849.92 811.52 896 766.976 896H282.112c-44.544 0-93.696-46.08-93.696-91.136V706.56H93.696C49.152 706.56 0 659.968 0 614.912v-297.984c0-45.056 49.152-70.656 93.696-70.656h94.72v-303.616c0-45.056 49.152-70.656 93.696-70.656h484.864c44.544 0 67.072 25.6 67.072 70.656v304.128h121.344c44.544 0 68.096 26.112 68.096 70.656V614.912c0.512 45.056-23.04 91.648-67.584 91.648zM242.176 804.864c0 14.848 25.088 38.4 39.936 38.4h484.864c14.848 0 13.312-23.04 13.312-38.4V706.56H242.176V804.864z m538.112-851.968c0-14.848-11.776-27.648-26.624-27.648H268.8c-14.848 0-26.624 12.8-26.624 27.648v401.92c0 14.848 11.776 27.136 26.624 27.136h484.864c14.848 0 26.624-12.288 26.624-27.136v-401.92z m175.616 347.648h-121.344v43.52c0 45.056-22.528 91.648-67.072 91.648H282.112c-44.544 0-93.696-46.592-93.696-91.648v-43.52H93.696c-14.848 0-39.936 1.536-39.936 16.896V614.912c0 14.848 25.088 37.376 39.936 37.376h862.208c14.848 0 13.312-22.016 13.312-37.376v-297.984c-0.512-14.848 1.536-16.384-13.312-16.384z m-89.6 324.608c-22.016 0-39.424-17.92-39.424-39.936s17.92-39.936 39.424-39.936c22.016 0 39.424 17.92 39.424 39.936s-17.92 39.936-39.424 39.936z"  horiz-adv-x="1024" />

    
    <glyph glyph-name="shuangyemoshi" unicode="&#59013;" d="M373.037551 586.926364H138.162056c-15.863051 0-29.167545-13.304494-29.167545-29.679257 0-16.374762 12.792783-29.679256 29.167545-29.679256h234.363784c15.863051 0 29.167545 13.304494 29.167545 29.679256 0 16.374762-12.792783 29.679256-28.655834 29.679257z m0-355.127655H138.162056c-15.863051 0-29.167545-13.304494-29.167545-29.679256 0-16.374762 12.792783-29.679256 29.167545-29.679257h234.363784c15.863051 0 29.167545 13.304494 29.167545 29.679257 0 16.374762-12.792783 29.679256-28.655834 29.679256z m0 177.563828H138.162056c-15.863051 0-29.167545-13.304494-29.167545-29.679257 0-16.374762 12.792783-29.679256 29.167545-29.679256h234.363784c15.863051 0 29.167545 13.304494 29.167545 29.679256S388.900602 409.362537 373.037551 409.362537z m513.246452 177.563827h-232.82865c-15.863051 0-29.167545-13.304494-29.167545-29.679257 0-16.374762 12.792783-29.679256 29.167545-29.679256h232.82865c15.863051 0 29.167545 13.304494 29.167545 29.679256-0.511711 16.374762-13.304494 29.679256-29.167545 29.679257z m0-355.127655h-232.82865c-15.863051 0-29.167545-13.304494-29.167545-29.679256 0-16.374762 12.792783-29.679256 29.167545-29.679257h232.82865c15.863051 0 29.167545 13.304494 29.167545 29.679257-0.511711 16.886473-13.304494 29.679256-29.167545 29.679256z m0 177.563828h-232.82865c-15.863051 0-29.167545-13.304494-29.167545-29.679257 0-16.374762 12.792783-29.679256 29.167545-29.679256h232.82865c15.863051 0 29.167545 13.304494 29.167545 29.679256-0.511711 16.374762-13.304494 29.679256-29.167545 29.679257zM783.430028 896C646.803106 896 570.046408 873.484702 511.711318 823.848704 453.887939 872.972991 376.61953 896 240.504319 896 60.893647 896 0 856.598229 0 769.095593v-867.350684c0-9.210804 4.093691-17.909896 11.257649-23.538721 7.163958-5.628824 16.374762-7.67567 25.073855-5.117113 52.194554 14.327917 71.127873 25.585566 203.661104 25.585566 118.205314 0 142.767458-8.699092 267.62502-26.097277 1.535134 0 2.558557 0.511711 4.09369 0.511711 1.535134 0 2.558557-0.511711 4.093691-0.511711 124.857562 17.398185 149.419705 26.097277 267.625019 26.097277 132.533231 0 151.46655-11.257649 203.661105-25.585566 8.699092-2.558557 17.909896-0.511711 25.073854 5.117113 7.163958 5.628824 11.257649 14.327917 11.257649 23.538721V769.095593c0.511711 87.502635-60.381936 126.904407-239.992608 126.904407zM483.055484-64.482144c-110.017933 14.839628-132.02152 22.515298-242.551165 22.515298-98.248573 0-104.90082-6.140536-182.169229-19.956741V769.095593c2.046845 20.468453-12.792783 68.057605 182.169229 68.057605 195.473723 0 240.504319-47.589153 242.551165-68.057605v-833.577737z m483.055484 2.558557c-77.78012 13.304494-83.920656 19.956741-182.169229 19.956741-110.529645 0-132.533231-7.67567-242.551164-22.515298V769.095593c2.046845 20.468453 47.589153 68.057605 242.551164 68.057605s180.122384-47.589153 182.169229-68.057605v-831.01918z"  horiz-adv-x="1024" />

    
    <glyph glyph-name="mulumoshi" unicode="&#59014;" d="M966.144 896H350.72C157.184 896 0 738.816 0 545.28v-615.424c0-31.744 26.112-57.344 57.856-57.856h615.424c193.536 0 350.72 157.184 350.72 350.72V838.144C1024 869.888 998.4 896 966.144 896z m-2.56-673.28c0-160.256-130.048-290.304-290.816-290.816H60.416V545.28c0 160.256 130.048 290.304 290.816 290.816h612.864v-613.376zM476.672 512.512h262.656c15.872 0 29.184 14.336 29.184 32.256s-12.8 32.256-29.184 32.256H476.672c-15.872 0-29.184-14.336-29.184-32.256 0.512-17.92 13.312-32.256 29.184-32.256zM315.904 577.024H260.096c-2.048 0-4.096-14.336-4.096-32.256s2.048-32.256 4.096-32.256h55.808c2.048 0 4.096 14.336 4.096 32.256s-1.536 32.256-4.096 32.256z m160.768-256.512h262.656c15.872 0 29.184 14.336 29.184 32.256s-12.8 32.256-29.184 32.256H476.672c-15.872 0-29.184-14.336-29.184-32.256 0.512-17.92 13.312-32.256 29.184-32.256zM315.904 385.024H260.096c-2.048 0-4.096-14.336-4.096-32.256s2.048-32.256 4.096-32.256h55.808c2.048 0 4.096 14.336 4.096 32.256s-1.536 32.256-4.096 32.256z m160.768-256.512h262.656c15.872 0 29.184 14.336 29.184 32.256s-12.8 32.256-29.184 32.256H476.672c-15.872 0-29.184-14.336-29.184-32.256 0.512-17.92 13.312-32.256 29.184-32.256z m-160.768 64.512H260.096c-2.048 0-4.096-14.336-4.096-32.256s2.048-32.256 4.096-32.256h55.808c2.048 0 4.096 14.336 4.096 32.256s-1.536 32.256-4.096 32.256z"  horiz-adv-x="1024" />

    
    <glyph glyph-name="caijian" unicode="&#58901;" d="M966.144 131.072h-122.368V633.856c0.512 50.176-39.424 91.136-89.6 92.16h-486.4V852.992c0 23.552-19.456 43.008-43.008 43.008s-43.008-19.456-43.008-43.008v-126.976H57.856c-24.576-1.536-43.52-23.04-41.472-48.128 1.536-22.528 19.456-39.936 41.472-41.472h122.88V133.12c-0.512-50.176 39.424-91.648 89.6-92.16h486.912v-125.952c0-23.552 19.456-43.008 43.008-43.008s43.008 19.456 43.008 43.008v126.464h122.368c24.576 1.536 43.52 23.04 41.472 48.128-1.536 22.528-19.456 39.936-41.472 41.472h0.512z m-331.776 0H313.856c-25.088 2.048-45.056 22.528-46.08 48.128V636.416h443.392c25.088-2.048 45.056-22.528 46.08-48.128v-457.728h-122.88v0.512z"  horiz-adv-x="1024" />

    
    <glyph glyph-name="chexiao" unicode="&#58902;" d="M354.816 729.088v-211.456h41.984c407.04 0 531.968-271.872 567.296-456.704-125.44 145.92-308.736 228.864-500.736 226.816-18.944 0-37.888-1.024-56.832-3.584l-49.664-9.216v-240.64S56.832 391.68 56.832 396.8c0 5.632 297.984 332.288 297.984 332.288m0 56.832c-15.872 0-31.232-6.656-41.984-17.92C0 427.52 0 426.496 0 397.312s0-26.112 313.856-396.8c19.968-24.064 55.808-27.648 79.872-7.68 12.8 10.752 20.48 26.624 20.48 44.032v192.512c16.384 1.024 32.768 1.024 49.152 0 175.616 1.024 342.528-74.752 457.216-207.36 17.92-25.6 53.248-32.256 78.848-14.336 20.992 14.336 29.696 40.96 21.504 65.024-38.912 185.344-169.984 494.592-609.28 501.76V729.088c0 31.744-25.088 56.832-56.832 56.832z"  horiz-adv-x="1024" />

    
    <glyph glyph-name="huifuchexiao" unicode="&#58903;" d="M669.184 729.088s297.984-326.656 297.984-332.288c0-5.12-300.032-362.496-300.032-362.496v240.64l-49.664 9.216c-18.944 2.56-37.888 3.584-56.832 3.584-192 2.048-375.296-80.896-500.736-226.816C95.232 245.76 220.16 517.632 627.2 517.632h41.984V729.088m0 56.832c-31.744 0-56.832-25.088-56.832-56.832v-154.624c-439.296-7.168-570.368-316.416-609.28-501.76-8.192-24.064 0.512-50.688 21.504-65.024 25.6-17.92 60.928-11.264 78.848 14.336 114.688 132.608 281.6 208.384 457.216 207.36 16.384 1.024 32.768 1.024 49.152 0v-192.512c0-17.408 7.68-33.28 20.48-44.032 24.064-19.968 59.904-16.384 79.872 7.68C1024 371.2 1024 368.128 1024 397.312s0 30.208-312.832 370.688c-10.752 11.264-26.112 17.92-41.984 17.92z"  horiz-adv-x="1024" />

    
    <glyph glyph-name="ganbuhuazhuan" unicode="&#58905;" d="M1008.128 38.912c-2.56 9.728-8.704 18.432-16.896 23.552-8.704 5.12-18.944 6.656-28.672 4.096-9.728-2.56-17.92-8.704-23.04-17.408s-6.656-18.944-4.096-29.184c5.632-23.552 9.728-47.616 11.776-71.68H76.8c18.944 227.328 205.312 407.04 432.64 408.576 1.024 0 2.048-0.512 3.072-0.512 145.408 0 263.68 120.832 263.68 269.824S657.408 896 512 896 248.32 775.168 248.32 626.176c0-89.6 43.008-167.936 108.544-217.088C150.016 342.016 0 143.872 0-89.6c0-20.992 16.896-38.4 37.376-38.4h948.736c20.48 0 37.376 17.408 37.376 38.4 0.512 43.52-4.608 86.528-15.36 128.512zM327.68 626.176c0 103.936 82.944 188.928 184.32 188.928 101.888 0 184.32-84.48 184.32-188.928 0-103.936-82.944-188.928-184.32-188.928-101.888 0.512-184.32 84.992-184.32 188.928zM818.688 195.072c1.536 13.824 10.24 27.136 17.92 33.792l11.776 9.216c-46.08 1.536-86.528-11.776-121.856-39.936-43.008-34.304-69.632-81.408-71.68-134.656-3.072-28.16-26.624-47.104-54.784-44.032-28.16 3.072-47.104 26.624-44.032 54.784 4.608 74.24 41.472 148.48 107.52 201.728 58.368 47.104 132.096 67.072 199.168 63.488l-15.872 19.456c-9.216 11.776-11.776 22.528-10.24 36.864 3.072 28.16 26.624 47.104 54.784 44.032 13.824-1.536 27.136-10.24 36.864-22.016l87.552-109.568c9.216-11.776 11.776-22.528 10.24-36.864-1.536-13.824-6.144-24.064-17.92-33.792L898.56 150.016c-11.776-9.216-22.528-11.776-36.864-10.24-27.648 3.584-46.08 27.136-43.008 55.296z m0 0"  horiz-adv-x="1026" />

    
    <glyph glyph-name="saomiao1" unicode="&#58906;" d="M656.896 777.728h218.112c17.92 0 30.72-12.8 30.72-30.72v-182.272c0-23.04 17.92-40.96 40.96-40.96s40.96 17.92 40.96 40.96V747.008c0 64-51.2 115.712-115.712 115.712h-218.112c-23.04 0-40.96-17.92-40.96-40.96 0.512-26.112 20.992-44.032 44.032-44.032zM76.8 523.776c23.04 0 40.96 17.92 40.96 40.96V747.008c0 17.92 12.8 30.72 30.72 30.72h182.272c23.04 0 40.96 17.92 40.96 40.96s-17.92 40.96-40.96 40.96H148.992C84.48 860.16 33.28 808.448 33.28 744.448v-182.272c2.56-17.92 20.48-38.4 43.52-38.4z m254.464-531.456H148.992c-17.92 0-30.72 12.8-30.72 30.72v182.272c0 23.04-17.92 40.96-40.96 40.96s-40.96-17.92-40.96-40.96v-182.272C35.84-40.96 87.04-92.16 151.552-92.16h182.272c23.04 0 40.96 17.92 40.96 40.96-2.56 25.6-20.48 43.52-43.52 43.52zM947.2 246.784c-23.04 0-40.96-17.92-40.96-40.96v-182.272c0-17.92-12.8-30.72-30.72-30.72h-218.112c-23.04 0-43.52-17.92-43.52-40.96s17.92-40.96 40.96-40.96h218.112c64 0 115.712 51.2 115.712 115.712v182.272c-0.512 17.408-18.432 37.888-41.472 37.888z m35.84 179.712H40.96c-23.04 0-40.96-17.92-40.96-40.96s17.92-40.96 40.96-40.96h942.08c23.04 0 40.96 17.92 40.96 40.96s-17.92 40.96-40.96 40.96z"  horiz-adv-x="1024" />

    
    <glyph glyph-name="shunshizhenxuanzhuan" unicode="&#58907;" d="M462.848 412.672c-43.52 0-78.848-35.328-78.848-78.848v-307.712c0-43.52 35.328-78.848 78.848-78.848h410.112c20.992 0 40.96 8.192 55.808 23.04 14.848 14.848 23.04 34.816 23.04 55.808v307.712c0 20.992-8.192 40.96-23.04 55.808-14.848 14.848-34.816 23.04-55.808 23.04H462.848z m0 75.264h410.112c40.96 0 79.872-16.384 108.544-45.056 28.672-28.672 45.056-68.096 45.056-109.056v-307.712c0-40.96-16.384-79.872-45.056-109.056-28.672-28.672-68.096-45.056-108.544-45.056H462.848c-84.992 0-153.6 69.12-153.6 154.112v307.712c0 84.992 68.608 154.112 153.6 154.112zM580.096 774.144c21.504 0 38.4-17.408 38.4-38.4s-17.408-38.4-38.4-38.4C302.08 697.344 76.8 472.064 76.8 194.048c0-21.504-17.408-38.4-38.4-38.4S0 173.056 0 194.048C0 514.56 259.584 774.144 580.096 774.144zM501.76 829.44c-14.848 14.848-14.848 39.424 0 54.272 14.848 14.848 39.424 14.848 54.272 0l122.368-122.368c14.848-14.848 14.848-39.424 0-54.272-14.848-14.848-39.424-14.848-54.272 0L501.76 829.44zM501.76 635.392c-14.848-14.848-14.848-39.424 0-54.272 14.848-14.848 39.424-14.848 54.272 0l122.368 122.368c14.848 14.848 14.848 39.424 0 54.272-14.848 14.848-39.424 14.848-54.272 0L501.76 635.392z"  horiz-adv-x="1026" />

    
    <glyph glyph-name="qingchubiankuang" unicode="&#58908;" d="M136.704 418.304H204.8v-68.096H136.704V418.304z m204.8 0H409.6v-68.096H341.504V418.304z m136.192 0h68.096v-68.096H477.696V418.304z m136.704 0h68.096v-68.096H614.4V418.304z m204.8 0h68.096v-68.096H819.2V418.304z m-819.2 0h68.096v-68.096H0V418.304z m477.696 136.192h68.096V486.4H477.696V554.496z m0 204.8h68.096V691.2H477.696V759.296z m0-819.2h68.096V-128H477.696v68.096z m0 341.504h68.096v-68.096H477.696V281.6z m0-204.8h68.096v-68.096H477.696V76.8z m0 819.2h68.096v-68.096H477.696V896zM136.704 896H204.8v-68.096H136.704V896z m0-955.904H204.8V-128H136.704v68.096z m204.8 0H409.6V-128H341.504v68.096z m272.896 0h68.096V-128H614.4v68.096z m204.8 0h68.096V-128H819.2v68.096z m-819.2 0h68.096V-128H0v68.096z m0 819.2h68.096V691.2H0V759.296z m0-204.8h68.096V486.4H0V554.496zM0 281.6h68.096v-68.096H0V281.6z m0-204.8h68.096v-68.096H0V76.8zM341.504 896H409.6v-68.096H341.504V896zM614.4 896h68.096v-68.096H614.4V896z m204.8 0h68.096v-68.096H819.2V896zM0 896h68.096v-68.096H0V896z m955.904-477.696H1024v-68.096h-68.096V418.304z m0-478.208H1024V-128h-68.096v68.096z m0 819.2H1024V691.2h-68.096V759.296z m0-204.8H1024V486.4h-68.096V554.496z m0-272.896H1024v-68.096h-68.096V281.6z m0-204.8H1024v-68.096h-68.096V76.8z m0 819.2H1024v-68.096h-68.096V896zM477.696 213.504h68.096V76.8H477.696v136.704z m-477.696 0h68.096V76.8H0v136.704zM682.496 896H819.2v-68.096h-136.704V896zM204.8-59.904h136.704V-128H204.8v68.096z m477.696 0H819.2V-128h-136.704v68.096zM204.8 418.304h136.704v-68.096H204.8V418.304z m477.696 0H819.2v-68.096h-136.704V418.304zM204.8 896h136.704v-68.096H204.8V896z m272.896-204.8h68.096v-136.704H477.696V691.2zM0 691.2h68.096v-136.704H0V691.2z m955.904-477.696H1024V76.8h-68.096v136.704z m0 477.696H1024v-136.704h-68.096V691.2z"  horiz-adv-x="1024" />

    
    <glyph glyph-name="xuanzhuan" unicode="&#58909;" d="M983.04 749.568c-22.528 0-40.96-18.432-40.96-40.96v-46.08c-19.456 29.696-41.984 57.856-67.584 83.456-47.104 47.104-101.888 83.968-162.816 109.568C648.192 882.176 581.12 896 512 896S375.808 882.176 312.832 855.552c-60.928-25.6-115.712-62.976-162.816-109.568S66.048 644.096 40.448 583.168C13.824 520.192 0 453.12 0 384s13.824-136.192 40.448-199.168c25.6-60.928 62.976-115.712 109.568-162.816 47.104-47.104 101.888-83.968 162.816-109.568 62.976-26.624 130.048-40.448 199.168-40.448 87.552 0 173.568 22.528 249.344 64.512 73.728 40.96 136.192 100.352 181.76 171.008 11.776 18.432 6.656 43.008-11.776 54.784-18.432 11.776-43.008 6.656-54.784-11.776-38.4-59.904-91.648-110.08-153.6-144.896-64-35.84-136.704-54.784-210.944-54.784-58.368 0-115.2 11.264-168.448 34.304-51.712 22.016-97.792 53.248-137.728 92.672-39.936 39.936-71.168 86.016-92.672 137.728-22.528 53.248-34.304 110.08-34.304 168.448 0 58.368 11.264 115.2 34.304 168.448C135.168 604.16 166.4 650.24 205.824 690.176S291.84 761.344 343.552 782.848c53.248 22.528 110.08 34.304 168.448 34.304 58.368 0 115.2-11.264 168.448-34.304 51.712-22.016 97.792-53.248 137.728-92.672 39.936-39.936 71.168-86.016 92.672-137.728 15.872-37.376 26.112-75.776 30.72-115.712v-57.344c0-22.528 18.432-40.96 40.96-40.96s40.96 18.432 40.96 40.96V708.608c0.512 22.528-17.92 40.96-40.448 40.96zM196.096 446.464c0 6.144 5.632 11.264 13.312 12.288 19.968 2.048 19.456 3.584 28.16 7.68 8.704 4.096 17.408 14.848 22.528 28.16 2.048 5.12 7.68 8.704 14.336 8.704h9.728c8.192 0 15.36-5.632 15.36-12.288V276.48c0-6.656-6.656-12.288-15.36-12.288h-16.384c-8.192 0-15.36 5.632-15.36 12.288V422.4c0 6.656-6.656 12.288-15.36 12.288h-26.112c-7.68-0.512-14.848 5.12-14.848 11.776z m177.152-38.912c-8.704 8.704-13.312 20.48-13.312 34.816 0 17.92 6.656 33.28 19.456 46.08s31.232 18.944 54.784 18.944c23.04 0 40.96-6.144 54.272-17.92 12.8-12.288 19.456-26.112 19.456-42.496 0-14.848-3.584-27.136-11.264-36.352-4.096-5.12-10.752-10.24-19.968-15.36 9.728-4.608 17.92-9.728 23.552-15.872 10.752-11.264 15.872-25.6 15.872-43.52 0-20.992-7.168-38.912-21.504-53.76-14.336-14.848-34.304-22.016-59.904-22.016-23.552 0-43.008 6.144-59.392 18.944-15.872 12.8-24.064 31.232-24.064 55.296 0 14.336 3.584 26.624 10.24 36.864 7.168 10.24 16.896 17.92 30.72 23.552-8.192 3.584-14.336 8.192-18.944 12.8z m91.136-102.4c7.68 6.144 11.776 15.872 11.776 28.16 0 12.8-4.096 22.528-11.776 29.184s-17.92 10.24-30.208 10.24c-11.776 0-21.504-3.584-29.184-10.24s-11.264-16.384-11.264-28.16c0-10.24 3.584-19.456 10.24-27.136s17.408-11.264 32.256-11.264c10.752-0.512 20.48 2.56 28.16 9.216z m-7.168 118.784c5.632 5.632 8.704 12.288 8.704 19.968 0 6.656-2.56 12.8-8.192 18.432-5.12 5.632-13.824 8.704-24.576 8.704-10.752 0-18.944-3.072-23.552-8.704-5.12-5.632-7.168-12.288-7.168-19.968 0-8.704 3.072-15.36 9.728-19.968 6.144-4.608 13.824-7.168 22.528-7.168 8.704 0.512 16.896 3.072 22.528 8.704z m233.984 45.056c10.752-19.968 15.872-47.104 15.872-80.896 0-32.768-4.608-59.392-14.336-80.896-13.824-30.72-36.864-46.08-69.12-46.08-28.672 0-50.176 12.288-64 37.376-11.776 20.992-17.408 49.152-17.408 83.968 0 27.136 3.584 50.688 10.752 70.144 13.312 36.352 36.864 54.784 71.68 54.784 30.208-0.512 52.736-12.8 66.56-38.4z m-37.376-145.92c7.68 11.264 11.264 32.256 11.264 62.976 0 22.016-2.56 40.448-8.192 54.784-5.632 14.336-15.872 21.504-31.744 21.504-14.336 0-25.088-6.656-31.744-20.48-6.656-13.824-10.24-33.792-10.24-59.904 0-19.968 2.048-35.84 6.656-48.128 6.656-18.432 17.92-27.648 33.792-27.648 12.8 0 23.04 5.632 30.208 16.896z m173.056 169.472c9.728-9.728 14.336-21.504 14.336-35.84s-5.12-26.624-15.36-36.352c-10.24-9.728-22.016-14.336-35.328-14.336-14.848 0-27.136 5.12-36.352 14.848-9.728 10.24-14.336 21.504-14.336 35.328 0 14.336 5.12 26.112 14.848 36.352 9.728 9.728 22.016 14.848 35.84 14.848 14.848-0.512 26.624-5.12 36.352-14.848z m-51.712-51.712c4.608-4.608 9.728-6.656 15.872-6.656 6.144 0 11.264 2.048 15.36 6.656 4.608 4.096 6.656 9.728 6.656 15.872 0 6.144-2.048 11.264-6.656 15.872-4.096 4.608-9.728 6.656-15.872 6.656s-11.264-2.048-15.872-6.656c-4.608-4.096-6.656-9.728-6.656-15.872 0.512-6.656 2.56-11.776 7.168-15.872z"  horiz-adv-x="1024" />

    
    <glyph glyph-name="qingchuxuanze" unicode="&#58910;" d="M449.536 766.464L91.136 409.6c-14.336-14.336-35.328-14.336-49.664 0s-12.8 35.328 0 49.664l358.4 356.864c14.336 14.336 35.328 14.336 49.664 0s12.8-35.328 0-49.664z m494.592-494.592l-356.864-358.4c-14.336-14.336-35.328-14.336-49.664 0-14.336 14.336-12.8 35.328 0 49.664l358.4 358.4c14.336 14.336 35.328 14.336 49.664 0 14.336-14.336 12.8-36.864-1.536-49.664z m-496.128-1.536l-109.056-109.056c-14.336-14.336-35.328-14.336-49.664 0-14.336 14.336-12.8 35.328 0 49.664l109.056 109.056c14.336 14.336 35.328 14.336 49.664 0s14.336-36.864 0-49.664z m-159.744 99.328L209.92 291.328c-14.336-14.336-35.328-14.336-49.664 0-14.336 14.336-12.8 35.328 0 49.664l78.336 78.336c14.336 14.336 35.328 14.336 49.664 0 12.288-12.8 12.288-35.328 0-49.664z m259.072-259.072l-78.336-78.336c-14.336-14.336-35.328-14.336-49.664 0-14.336 14.336-12.8 35.328 0 49.664l78.336 78.336c14.336 14.336 35.328 14.336 49.664 0s12.8-35.328 0-49.664zM540.16-117.76L13.312 408.064c-15.36 15.36-15.36 37.376 0 52.736s37.376 13.824 52.736 0l527.36-527.36c15.36-15.36 15.36-37.376 0-52.736-15.36-11.776-37.888-11.776-53.248 1.536z m218.112 219.648l-527.36 527.36c-15.36 15.36-15.36 37.376 0 52.736s37.376 13.824 52.736 0l525.312-527.36c15.36-15.36 15.36-37.376 0-52.736-11.776-15.36-35.84-15.36-50.688 0z m202.24 607.232L839.68 829.44c-15.36 15.36-15.36 37.376 0 52.736 15.36 15.36 37.376 13.824 52.736 0l120.832-120.832c15.36-15.36 15.36-37.376 0-52.736-15.36-14.848-39.424-14.848-52.736 0.512z m-364.032-122.88L394.24 788.992c-15.36 15.36-15.36 37.376 0 52.736 15.36 15.36 37.376 13.824 52.736 0l202.24-202.24c15.36-15.36 15.36-37.376 0-52.736-13.824-13.824-37.376-13.824-52.736-0.512z m324.608-323.072L717.312 465.92c-15.36 15.36-15.36 37.376 0 52.736 15.36 15.36 37.376 13.824 52.736 0l202.24-202.24c15.36-15.36 15.36-37.376 0-52.736-13.312-15.872-37.376-15.872-51.2-0.512zM980.992 691.2l-227.328-228.864c-14.336-14.336-35.328-14.336-49.664 0s-12.8 35.328 0 49.664l228.864 228.864c14.336 14.336 35.328 14.336 49.664 0 12.8-14.336 12.8-36.864-1.536-49.664z m-112.128 113.664L640 576c-14.336-14.336-35.328-14.336-49.664 0-14.336 14.336-12.8 35.328 0 49.664L819.2 854.528c14.336 14.336 35.328 14.336 49.664 0 12.8-14.336 12.8-36.864 0-49.664z"  horiz-adv-x="1024" />

    
    <glyph glyph-name="saomiaoshezhi" unicode="&#58911;" d="M656.896 777.728h218.112c17.92 0 30.72-12.8 30.72-30.72v-182.272c0-23.04 17.92-40.96 40.96-40.96s40.96 17.92 40.96 40.96V747.008c0 64-51.2 115.712-115.712 115.712h-218.112c-23.04 0-40.96-17.92-40.96-40.96 0.512-26.112 20.992-44.032 44.032-44.032zM76.8 523.776c23.04 0 40.96 17.92 40.96 40.96V747.008c0 17.92 12.8 30.72 30.72 30.72h182.272c23.04 0 40.96 17.92 40.96 40.96s-17.92 40.96-40.96 40.96H148.992C84.48 860.16 33.28 808.448 33.28 744.448v-182.272c2.56-17.92 20.48-38.4 43.52-38.4z m254.464-531.456H148.992c-17.92 0-30.72 12.8-30.72 30.72v182.272c0 23.04-17.92 40.96-40.96 40.96s-40.96-17.92-40.96-40.96v-182.272C35.84-40.96 87.04-92.16 151.552-92.16h182.272c23.04 0 40.96 17.92 40.96 40.96-2.56 25.6-20.48 43.52-43.52 43.52zM983.04 426.496H40.96c-23.04 0-40.96-17.92-40.96-40.96s17.92-40.96 40.96-40.96h942.08c23.04 0 40.96 17.92 40.96 40.96s-17.92 40.96-40.96 40.96z m-183.296-262.144c-45.056 0-81.92-37.376-81.92-82.432 0-45.568 36.864-82.944 81.92-82.944s81.92 37.376 81.92 82.944c0 45.056-36.864 82.432-81.92 82.432z m0-130.56c-26.112 0-46.08 21.504-46.08 46.592 0 25.088 21.504 46.592 46.08 46.592 25.088 0 46.08-21.504 46.08-46.592 0-25.088-19.968-46.592-46.08-46.592z m204.288 80.384c-1.536 6.656-5.632 11.776-11.776 14.336l-33.28 11.776c-2.56 6.144-3.584 10.752-7.168 15.36l15.36 31.232c2.56 6.144 2.56 13.312-1.024 17.92-12.8 16.896-27.136 32.256-45.056 45.568-5.12 4.096-12.288 4.608-17.92 1.024l-30.72-15.36c-4.608 2.56-10.752 4.608-15.36 7.168l-11.776 33.792c-2.56 6.144-7.168 10.752-14.336 11.776-20.992 3.584-41.984 3.584-62.976 0-6.144-1.536-11.776-6.144-14.336-11.776l-11.776-33.28c-6.144-2.56-10.752-3.584-15.36-7.168l-30.72 15.36c-6.144 2.56-12.8 2.56-17.92-1.024-16.384-13.312-32.256-27.648-45.056-45.568-4.096-5.12-4.608-12.288-1.024-17.92l15.36-31.232c-2.56-4.608-4.608-10.752-7.168-15.36l-33.28-11.776c-6.144-2.56-10.752-7.168-11.776-14.336-2.56-11.776-2.56-21.504-2.56-32.256 0-9.728 1.024-20.48 2.56-32.256 1.024-6.144 6.144-11.776 11.776-14.336l33.28-11.776c2.56-6.144 3.584-10.752 7.168-15.36l-15.36-31.232c-2.56-6.144-2.56-13.312 1.024-17.92 12.8-16.896 27.136-32.256 45.056-45.568 4.608-3.584 11.776-4.608 17.92-1.024l30.72 15.36c4.608-2.56 10.752-4.608 15.36-7.168l11.776-33.792c2.56-6.144 7.168-10.752 14.336-11.776 11.776-1.024 21.504-2.56 32.256-2.56s19.968 1.024 32.256 2.56c6.144 1.024 11.776 6.144 14.336 11.776l11.776 33.792c6.144 2.56 10.752 3.584 15.36 7.168l30.72-15.36c6.144-2.56 13.312-2.56 17.92 1.024 16.384 13.312 32.256 27.648 45.056 45.568 4.096 5.12 4.608 12.288 1.024 17.92l-15.36 31.232c2.56 4.608 4.608 10.752 7.168 15.36l33.28 11.776c6.144 2.56 10.752 7.168 11.776 14.336 2.56 11.776 2.56 21.504 2.56 32.256-0.512 10.24-3.072 19.456-4.096 31.744z m-34.816-48.128l-30.72-10.752c-6.144-2.56-9.728-6.144-10.752-11.776-2.56-9.728-6.144-17.92-10.752-26.624-2.56-4.608-2.56-10.752 0-16.896l14.336-30.208c-7.168-8.192-14.336-15.36-22.528-22.528l-29.696 14.336c-4.608 2.56-10.752 2.56-16.384 0-8.192-4.608-16.384-8.192-26.112-10.752-6.144-1.024-9.728-6.144-11.776-10.752l-10.752-31.232c-10.24-1.024-20.48-1.024-30.72 0l-10.752 31.232c-2.56 6.144-6.144 9.728-11.776 10.752-9.216 2.56-17.92 6.144-26.112 10.752-4.608 2.56-10.752 2.56-16.384 0l-29.696-14.336c-8.192 7.168-15.36 14.336-22.528 22.528l14.336 30.208c2.56 4.608 2.56 10.752 0 16.896-4.608 8.192-8.192 16.896-10.752 26.624-1.024 6.144-6.144 9.728-10.752 11.776l-30.72 10.752c0 6.144-1.024 10.752-1.024 15.36s0 10.752 1.024 15.36l30.72 10.752c6.144 2.56 9.728 6.144 10.752 11.776 2.56 9.728 6.144 17.92 10.752 26.624 2.56 4.608 2.56 10.752 0 16.896l-14.336 30.208c7.168 8.192 14.336 15.36 22.528 22.528l29.696-14.336c4.608-2.56 10.752-2.56 16.384 0 8.192 4.608 16.384 8.192 26.112 10.752 6.144 1.024 9.728 6.144 11.776 10.752l10.752 31.232c10.24 1.024 20.48 1.024 30.72 0l10.752-31.232c2.56-6.144 6.144-9.728 11.776-10.752 9.728-2.56 17.92-6.144 26.112-10.752 4.608-2.56 10.752-2.56 16.384 0l29.696 14.336c8.192-7.168 15.36-14.336 22.528-22.528l-14.336-30.208c-2.56-4.608-2.56-10.752 0-16.896 4.608-8.192 8.192-16.896 10.752-26.624 1.024-6.144 6.144-9.728 10.752-11.776l30.72-10.752c0-6.144 1.024-10.752 1.024-15.36 0.512-4.608 0.512-9.216-1.024-15.36z m34.816 48.128c-1.536 6.656-5.632 11.776-11.776 14.336l-33.28 11.776c-2.56 6.144-3.584 10.752-7.168 15.36l15.36 31.232c2.56 6.144 2.56 13.312-1.024 17.92-12.8 16.896-27.136 32.256-45.056 45.568-5.12 4.096-12.288 4.608-17.92 1.024l-30.72-15.36c-4.608 2.56-10.752 4.608-15.36 7.168l-11.776 33.792c-2.56 6.144-7.168 10.752-14.336 11.776-20.992 3.584-41.984 3.584-62.976 0-6.144-1.536-11.776-6.144-14.336-11.776l-11.776-33.28c-6.144-2.56-10.752-3.584-15.36-7.168l-30.72 15.36c-6.144 2.56-12.8 2.56-17.92-1.024-16.384-13.312-32.256-27.648-45.056-45.568-4.096-5.12-4.608-12.288-1.024-17.92l15.36-31.232c-2.56-4.608-4.608-10.752-7.168-15.36l-33.28-11.776c-6.144-2.56-10.752-7.168-11.776-14.336-2.56-11.776-2.56-21.504-2.56-32.256 0-9.728 1.024-20.48 2.56-32.256 1.024-6.144 6.144-11.776 11.776-14.336l33.28-11.776c2.56-6.144 3.584-10.752 7.168-15.36l-15.36-31.232c-2.56-6.144-2.56-13.312 1.024-17.92 12.8-16.896 27.136-32.256 45.056-45.568 4.608-3.584 11.776-4.608 17.92-1.024l30.72 15.36c4.608-2.56 10.752-4.608 15.36-7.168l11.776-33.792c2.56-6.144 7.168-10.752 14.336-11.776 11.776-1.024 21.504-2.56 32.256-2.56s19.968 1.024 32.256 2.56c6.144 1.024 11.776 6.144 14.336 11.776l11.776 33.792c6.144 2.56 10.752 3.584 15.36 7.168l30.72-15.36c6.144-2.56 13.312-2.56 17.92 1.024 16.384 13.312 32.256 27.648 45.056 45.568 4.096 5.12 4.608 12.288 1.024 17.92l-15.36 31.232c2.56 4.608 4.608 10.752 7.168 15.36l33.28 11.776c6.144 2.56 10.752 7.168 11.776 14.336 2.56 11.776 2.56 21.504 2.56 32.256-0.512 10.24-3.072 19.456-4.096 31.744z m-34.816-48.128l-30.72-10.752c-6.144-2.56-9.728-6.144-10.752-11.776-2.56-9.728-6.144-17.92-10.752-26.624-2.56-4.608-2.56-10.752 0-16.896l14.336-30.208c-7.168-8.192-14.336-15.36-22.528-22.528l-29.696 14.336c-4.608 2.56-10.752 2.56-16.384 0-8.192-4.608-16.384-8.192-26.112-10.752-6.144-1.024-9.728-6.144-11.776-10.752l-10.752-31.232c-10.24-1.024-20.48-1.024-30.72 0l-10.752 31.232c-2.56 6.144-6.144 9.728-11.776 10.752-9.216 2.56-17.92 6.144-26.112 10.752-4.608 2.56-10.752 2.56-16.384 0l-29.696-14.336c-8.192 7.168-15.36 14.336-22.528 22.528l14.336 30.208c2.56 4.608 2.56 10.752 0 16.896-4.608 8.192-8.192 16.896-10.752 26.624-1.024 6.144-6.144 9.728-10.752 11.776l-30.72 10.752c0 6.144-1.024 10.752-1.024 15.36s0 10.752 1.024 15.36l30.72 10.752c6.144 2.56 9.728 6.144 10.752 11.776 2.56 9.728 6.144 17.92 10.752 26.624 2.56 4.608 2.56 10.752 0 16.896l-14.336 30.208c7.168 8.192 14.336 15.36 22.528 22.528l29.696-14.336c4.608-2.56 10.752-2.56 16.384 0 8.192 4.608 16.384 8.192 26.112 10.752 6.144 1.024 9.728 6.144 11.776 10.752l10.752 31.232c10.24 1.024 20.48 1.024 30.72 0l10.752-31.232c2.56-6.144 6.144-9.728 11.776-10.752 9.728-2.56 17.92-6.144 26.112-10.752 4.608-2.56 10.752-2.56 16.384 0l29.696 14.336c8.192-7.168 15.36-14.336 22.528-22.528l-14.336-30.208c-2.56-4.608-2.56-10.752 0-16.896 4.608-8.192 8.192-16.896 10.752-26.624 1.024-6.144 6.144-9.728 10.752-11.776l30.72-10.752c0-6.144 1.024-10.752 1.024-15.36 0.512-4.608 0.512-9.216-1.024-15.36z"  horiz-adv-x="1024" />

    
    <glyph glyph-name="shoudongjiubian" unicode="&#58912;" d="M510.464768-128c-131.518241 0-262.012994 50.662669-360.779611 149.941029-154.034983 154.546727-193.43928 389.949025-97.231384 586.458771 7.676162 15.352324 26.098951 21.493253 40.93953 13.817092 15.352324-7.676162 21.493253-25.587206 13.817092-40.939531-84.437781-172.969515-50.150925-380.225887 85.461269-516.349825 155.058471-155.058471 397.113443-176.03998 576.223888-49.63918 13.817091 9.723138 32.751624 6.652674 42.474763-7.164418 9.723138-13.817091 6.14093-32.751624-7.164418-42.474763-88.531734-62.944528-191.392304-93.649175-293.741129-93.649175zM118.98051 559.272364c-26.610695 0-51.686157 10.234883-70.62069 29.169415-18.934533 18.934533-29.169415 44.009995-29.169415 70.62069 0 26.610695 10.234883 51.686157 29.169415 70.620689 38.892554 38.892554 102.348826 38.892554 141.241379 0 38.892554-38.892554 38.892554-102.348826 0-141.753123-18.422789-18.422789-43.498251-28.657671-70.620689-28.657671z m0 138.682658c-9.723138 0-19.958021-3.582209-27.634183-11.25837-7.164418-7.164418-11.258371-16.887556-11.258371-27.634183 0-10.234883 4.093953-19.958021 11.258371-27.634183 7.164418-7.164418 16.887556-11.258371 27.122439-11.258371s19.958021 4.093953 27.634183 11.258371c15.352324 15.352324 15.352324 39.916042 0 54.756622-7.164418 8.187906-16.887556 11.770115-27.122439 11.770114zM943.4003 141.177411c-4.605697 0-9.211394 1.023488-13.305347 3.070465-15.352324 7.164418-21.493253 25.587206-13.817092 40.93953 84.437781 172.969515 50.150925 380.225887-85.973013 516.349825C675.246377 856.595702 432.67966 877.577211 253.569215 751.176412c-13.817091-9.723138-32.751624-6.652674-42.474762 7.164418-9.723138 13.817091-6.14093 32.751624 7.164418 42.474762 203.674163 143.288356 478.992504 119.748126 655.032483-56.291854 154.034983-154.546727 193.43928-389.949025 97.231385-586.45877-5.117441-10.746627-15.864068-16.887556-27.122439-16.887557zM903.996002 7.612194c-26.610695 0-51.686157 10.234883-70.62069 29.169415-18.934533 18.934533-29.169415 44.009995-29.169415 70.62069 0 26.610695 10.234883 51.686157 29.169415 70.62069 38.892554 38.892554 102.348826 38.892554 141.24138 0 38.892554-38.892554 38.892554-102.348826 0-141.753124-18.934533-18.422789-44.009995-28.657671-70.62069-28.657671z m0 138.682659c-10.234883 0-19.958021-4.093953-27.634183-11.258371-7.164418-7.164418-11.258371-16.887556-11.258371-27.634183 0-10.234883 4.093953-19.958021 11.258371-27.634183 7.164418-7.164418 16.887556-11.258371 27.122439-11.258371s19.958021 4.093953 27.634183 11.258371c15.352324 15.352324 15.352324 39.916042 0 54.756622-7.164418 8.187906-17.3993 11.770115-27.122439 11.770115zM430.632684 127.872064l-158.128936 197.021489s-8.187906 73.691154 62.944528 42.474763c40.93953-18.422789 55.78011-57.315342 55.78011-57.315342l1.535232 300.393803s42.474763 63.456272 79.32034 0l0.511744-190.368816s46.056972 62.432784 99.790105-4.605697c0 0 40.427786 68.061969 97.231384-3.070465 0 0 40.427786 78.808596 80.855573-6.652674v-238.984507s-2.558721-18.422789-35.310345-39.916042l-284.529735 1.023488z"  horiz-adv-x="1024" />

    
    <glyph glyph-name="zidongjiubian" unicode="&#58913;" d="M510.464-126.976c-131.584 0-262.144 50.688-360.96 150.016C-4.608 177.152-44.032 413.184 52.224 609.28c7.68 15.36 26.112 21.504 40.96 13.824 15.36-7.68 21.504-25.6 13.824-40.96C22.528 409.6 56.832 202.24 192.512 66.56c154.624-155.136 397.312-176.128 576.512-49.664 13.824 9.728 32.768 6.144 42.496-7.168 9.728-13.824 6.144-32.768-7.168-42.496-89.088-63.488-192-94.208-293.888-94.208zM118.784 560.128c-26.624 0-51.712 10.24-70.656 29.184-18.944 18.944-29.184 44.032-29.184 70.656 0 26.624 10.24 51.712 29.184 70.656 38.912 38.912 102.4 38.912 141.312 0 38.912-38.912 38.912-102.4 0-141.312-18.944-18.944-44.032-29.184-70.656-29.184z m0 138.752c-9.728 0-19.968-3.584-27.648-11.264-7.168-7.168-11.264-16.896-11.264-27.648 0-10.24 4.096-19.968 11.264-27.136 7.168-7.168 16.896-11.264 27.136-11.264s19.968 4.096 27.648 11.264c15.36 15.36 15.36 39.936 0 54.784-7.168 7.168-16.896 11.264-27.136 11.264zM942.592 141.824c-4.608 0-9.216 1.024-13.312 3.072-15.36 7.168-21.504 25.6-13.824 40.96 84.48 172.544 50.176 379.904-85.504 516.096C674.816 857.088 432.128 878.08 253.44 752.128c-13.824-9.728-32.768-6.144-42.496 7.168-9.728 13.824-6.144 32.768 7.168 42.496 203.264 143.36 478.72 119.808 654.848-56.32 154.112-154.624 193.536-390.144 97.28-586.24-5.12-10.752-16.384-17.408-27.648-17.408zM903.168 8.192c-26.624 0-51.712 10.24-70.656 29.184s-29.184 44.032-29.184 70.656c0 26.624 10.24 51.712 29.184 70.656 38.912 38.912 102.4 38.912 141.312 0 38.912-38.912 38.912-102.4 0-141.312-18.432-18.432-43.52-28.672-70.656-29.184z m0 139.264c-10.24 0-19.968-4.096-27.648-11.264-7.168-7.168-11.264-16.896-11.264-27.648 0-10.24 4.096-19.968 11.264-27.136s16.896-11.264 27.136-11.264 19.968 4.096 27.648 11.264c15.36 15.36 15.36 39.936 0 54.784-7.168 7.168-16.896 11.264-27.136 11.264zM561.664 596.992H461.824l-152.064-425.984h93.696l28.672 84.992H588.8l27.648-84.992h96.768l-151.552 425.984z m-107.52-255.488l57.344 157.696 49.152-157.696H454.144z"  horiz-adv-x="1024" />

    
    <glyph glyph-name="nishizhenxuanzhuan" unicode="&#58914;" d="M160.768 412.672c-43.52 0-78.848-35.328-78.848-78.848v-307.712c0-43.52 35.328-78.848 78.848-78.848h410.112c20.992 0 40.96 8.192 55.808 23.04 14.848 14.848 23.04 34.816 23.04 55.808v307.712c0 20.992-8.192 40.96-23.04 55.808-14.848 14.848-34.816 23.04-55.808 23.04H160.768z m0 75.264h410.112c40.96 0 79.872-16.384 108.544-45.056 28.672-28.672 45.056-68.096 45.056-109.056v-307.712c0-40.96-16.384-79.872-45.056-109.056-28.672-28.672-68.096-45.056-108.544-45.056H160.768c-84.992 0-153.6 69.12-153.6 154.112v307.712c0 84.992 68.608 154.112 153.6 154.112zM1016.832 194.048c0-21.504-17.408-38.4-38.4-38.4s-38.4 17.408-38.4 38.4c0 277.504-225.28 502.784-502.784 502.784-21.504 0-38.4 17.408-38.4 38.4s17.408 38.4 38.4 38.4c320 0.512 579.584-259.072 579.584-579.584zM392.704 707.072c-14.848-14.848-39.424-14.848-54.272 0-14.848 14.848-14.848 39.424 0 54.272L460.8 883.712c14.848 14.848 39.424 14.848 54.272 0 14.848-14.848 14.848-39.424 0-54.272L392.704 707.072zM392.704 757.76c-14.848 14.848-39.424 14.848-54.272 0-14.848-14.848-14.848-39.424 0-54.272l122.368-122.88c14.848-14.848 39.424-14.848 54.272 0 14.848 14.848 14.848 39.424 0 54.272L392.704 757.76z"  horiz-adv-x="1024" />

    
    <glyph glyph-name="guikou" unicode="&#58915;" d="M963.069544 619.006095h-209.407466V730.621811c0 91.135768-74.239811 165.375578-165.375578 165.375578H167.423573C75.263808 896.509388 1.023997 822.269577 0 730.621811v-811.517931c0-26.111933 20.991946-47.10388 47.10388-47.10388s47.10388 20.991946 47.10388 47.10388V730.621811c0 39.423899 32.255918 71.167819 72.191816 71.167818h421.374925c39.423899 0.511999 71.679817-31.743919 72.191816-71.167818v-811.517931c0-26.111933 20.991946-47.10388 47.10388-47.10388s47.10388 20.991946 47.10388 47.10388V524.798335h209.407466c39.423899 1.023997 72.191816-30.719922 73.215813-70.143821V-80.89612c0-26.111933 20.991946-47.10388 47.10388-47.10388s47.10388 20.991946 47.10388 47.10388V453.630517c-1.535996 91.647766-76.287805 165.887577-167.935572 165.375578zM212.479458 666.109975h95.231757v-94.20776H212.479458V666.109975z m222.207434 0h95.231757v-94.20776H434.686892V666.109975zM212.479458 451.582522h95.231757v-94.20776H212.479458V451.582522z m222.207434 0h95.231757v-94.20776H434.686892V451.582522z m-222.207434-215.55145h95.231757v-94.20776H212.479458v94.20776z m222.207434 0h95.231757v-94.20776H434.686892v94.20776z m-222.207434-215.039452h95.231757v-94.20776H212.479458v94.20776z m222.207434 0h95.231757v-94.20776H434.686892v94.20776zM844.797846 451.582522h95.231757v-94.20776H844.797846V451.582522z m0-215.55145h95.231757v-94.20776H844.797846v94.20776z m0-215.039452h95.231757v-94.20776H844.797846v94.20776z"  horiz-adv-x="1131" />

    
    <glyph glyph-name="bumen" unicode="&#58916;" d="M1011.2 460.288L537.6 886.272c-14.336 12.8-36.352 12.8-50.688 0L12.8 460.288c-15.36-13.824-16.896-37.888-3.072-53.76 13.824-15.36 37.888-16.896 53.76-3.072L512 806.912l448.512-403.456c7.168-6.144 15.872-9.728 25.088-9.728 10.24 0 20.48 4.096 28.16 12.8 14.336 15.36 13.312 39.424-2.56 53.76z m-144.896-85.504c-20.992 0-37.888-16.896-37.888-37.888v-388.608h-168.448v208.384c0 20.992-16.896 37.888-37.888 37.888H392.704c-20.992 0-37.888-16.896-37.888-37.888v-208.384H193.536v388.608c0 20.992-16.896 37.888-37.888 37.888s-37.888-16.896-37.888-37.888v-426.496c0-20.992 16.896-37.888 37.888-37.888h237.056c20.992 0 37.888 16.896 37.888 37.888v1.024 207.872h153.6V-89.6c0-20.992 16.896-37.888 37.888-37.888h244.224c20.992 0 37.888 16.896 37.888 37.888v426.496c0 20.48-16.896 37.888-37.888 37.888z"  horiz-adv-x="1024" />

    
    <glyph glyph-name="shangyiye" unicode="&#58917;" d="M172.032-128h679.424c94.72 0 172.032 76.8 172.032 172.032V723.968c0 94.72-76.8 172.032-172.032 172.032H172.032C77.312 895.488 0.512 819.2 0.512 723.968v-679.424C0.512-51.2 76.8-128 172.032-128zM84.48 723.968c0 47.616 40.448 87.552 87.552 87.552h679.424c47.616 0 87.552-40.448 87.552-87.552v-679.424c0-47.616-40.448-87.552-87.552-87.552H172.032c-47.616 0-87.552 40.448-87.552 87.552V723.968zM487.424 383.488v-6.656l158.208-157.696c3.072-3.584 3.072-6.656 0-9.728l-45.568-45.056c-3.584-3.072-6.656-3.072-9.728 0l-212.48 212.48c-3.072 3.584-3.072 6.656 0 9.728l211.968 216.576c3.072 3.072 6.656 3.072 9.728 0L645.12 558.08c3.072-3.584 3.072-6.656 0-9.728l-157.696-164.864z"  horiz-adv-x="1024" />

    
    <glyph glyph-name="shiyingkuandu" unicode="&#58918;" d="M32 864v-960h960V864H32z m896-896H96V800h832v-832zM387.2 537.6c-6.4 6.4-19.2 6.4-25.6 0L220.8 396.8c-6.4-6.4-6.4-19.2 0-25.6l140.8-140.8c6.4-6.4 19.2-6.4 25.6 0V537.6z m422.4-166.4c6.4 6.4 6.4 19.2 0 25.6L668.8 537.6c-6.4 6.4-19.2 6.4-25.6 0v-304c6.4-6.4 19.2-6.4 25.6 0l140.8 137.6z"  horiz-adv-x="1024" />

    
    <glyph glyph-name="xiayiye" unicode="&#58919;" d="M172.032-128h679.424c94.72 0 172.032 76.8 172.032 172.032V723.968c0 94.72-76.8 172.032-172.032 172.032H172.032C77.312 895.488 0.512 819.2 0.512 723.968v-679.424C0.512-51.2 76.8-128 172.032-128zM84.48 723.968c0 47.616 40.448 87.552 87.552 87.552h679.424c47.616 0 87.552-40.448 87.552-87.552v-679.424c0-47.616-40.448-87.552-87.552-87.552H172.032c-47.616 0-87.552 40.448-87.552 87.552V723.968zM536.576 383.488L378.88 548.352c-3.072 3.072-3.072 6.144 0 9.728l45.568 45.568c3.072 3.072 6.656 3.072 9.728 0l211.968-216.576c3.072-3.072 3.072-6.144 0-9.728l-212.48-212.48c-3.072-3.072-6.144-3.072-9.728 0l-45.568 45.056c-3.072 3.072-3.072 6.144 0 9.728l158.208 157.696v6.144z"  horiz-adv-x="1024" />

    
    <glyph glyph-name="ren" unicode="&#58920;" d="M1024.012 19.445c-0.006 155.74-89.433 288.857-215.897 343.146 61.247 44.142 101.614 119.342 101.614 204.748 0 116.592-75.2 214.173-176.152 239.55a4.045 4.045 0 0 1-2.667-0.24c-1.143 0.117-2.263 0.381-3.43 0.381-21.566 0-39.047-18.864-39.047-42.125 0-21.004 14.298-38.274 32.951-41.451 3.318-1.46 7.674-2.568 7.844-2.638 58.463-21.397 100.524-81.004 100.524-151.29 0-78.372-52.337-143.494-121.364-157.124-0.094-0.006-0.176-0.2-0.276-0.252-22.962-1.565-41.193-21.948-41.193-47.096 0-25.536 18.765-46.223 42.225-47.232 0.158-0.088 0.305-0.363 0.469-0.37C848.44 302.2 946.848 174.663 946.848 19.44c0-22.98 17.276-41.61 38.585-41.61 20.787 0 37.611 17.774 38.426 39.98 0.024 0.217 0.153 0.387 0.153 0.61 0 0.076-0.03 0.152-0.03 0.252 0.012 0.252 0.03 0.504 0.03 0.756v0.018z m-462.348 336.24c73.148 52.854 121.317 142.72 121.317 244.798 0 162.663-122.267 294.532-273.1 294.532-150.827 0-273.105-131.869-273.105-294.532 0-102.089 48.186-191.944 121.317-244.797C106.903 290.616 0.006 131.376 0.006-54.894c0-10.487 0.55-20.816 1.295-31.086h0.07c0-22.675 17.042-41.035 38.07-41.035 21.01 0 38.057 18.366 38.057 41.035 0 1.278-0.24 2.485-0.352 3.734-0.733 9.04-1.36 18.09-1.36 27.353 0 198.99 149.578 360.305 334.101 360.305 184.529 0 334.108-161.315 334.108-360.305 0-9.602-0.628-19.046-1.413-28.414-0.006-0.487-0.13-0.932-0.13-1.424 0-0.147 0.048-0.294 0.048-0.434-0.024-0.27-0.018-0.551-0.047-0.815h0.123c0.627-22.065 17.323-39.792 37.934-39.792 20.623 0 37.312 17.715 37.946 39.792h0.082c0.72 10.276 1.23 20.611 1.23 31.075-0.011 186.282-106.902 345.521-258.104 410.59z m-151.783 33.233c-108.344 0-196.17 94.72-196.17 211.565 0 116.839 87.826 211.565 196.17 211.565s196.171-94.72 196.171-211.565-87.826-211.565-196.17-211.565z"  horiz-adv-x="1024" />

    
    <glyph glyph-name="keshi" unicode="&#58922;" d="M917.504 896H106.496C47.616 896 0 848.384 0 789.504v-811.008C0-80.384 47.616-128 106.496-128h811.008c58.88 0 106.496 47.616 106.496 106.496V789.504C1024 848.384 976.384 896 917.504 896zM106.496 824.832h811.008c19.456 0 35.328-15.872 35.328-35.328v-169.472H71.168V789.504c0 19.456 15.872 35.328 35.328 35.328z m811.008-881.664H106.496c-19.456 0-35.328 15.872-35.328 35.328v568.32h882.176v-567.808c-0.512-19.968-16.384-35.84-35.84-35.84zM864.256 719.36m-33.792 0a33.792 33.792 0 1 1 67.584 0 33.792 33.792 0 1 1-67.584 0ZM741.376 719.36m-33.792 0a33.792 33.792 0 1 1 67.584 0 33.792 33.792 0 1 1-67.584 0ZM618.496 719.36m-33.792 0a33.792 33.792 0 1 1 67.584 0 33.792 33.792 0 1 1-67.584 0ZM593.92 157.184c39.424 26.624 65.536 71.68 65.536 123.392 0 81.92-66.048 148.48-147.968 148.48-81.408 0-147.968-66.56-147.968-148.48 0-51.2 26.112-96.768 65.536-123.392-81.92-32.768-139.776-113.152-139.776-206.848 0-5.12 0.512-10.24 0.512-15.872 0-11.264 15.36-20.48 26.624-20.48s26.624 9.216 26.624 20.48v2.048c-0.512 4.608-0.512 9.216-0.512 13.824 0 100.352 69.12 169.472 168.96 169.472s168.96-69.632 168.96-169.472c0-4.608-0.512-9.728-0.512-14.336v-1.024c0.512-11.264 20.992-19.968 32.256-19.968s19.968 8.704 20.48 19.968c0.512 5.12 0.512 10.24 0.512 15.872 0.512 93.184-57.344 173.568-139.264 206.336z m-81.92 28.16c-52.224 0-94.208 42.496-94.208 94.72s42.496 94.72 94.208 94.72 94.208-42.496 94.208-94.72-41.984-94.72-94.208-94.72zM229.376 75.264c26.112 17.408 43.52 47.616 43.52 81.92 0 54.272-44.032 98.304-98.304 98.304s-98.304-44.032-98.304-98.304c0-34.304 17.408-64 43.52-81.92-53.76-22.016-92.16-75.264-92.16-137.216 0-3.584 0-7.168 0.512-10.24 0-7.68 10.24-13.824 17.408-13.824 7.68 0 17.408 6.144 17.408 13.824v1.024c-0.512 3.072-0.512 6.144-0.512 9.216 0 66.56 46.08 112.64 112.128 112.64 66.048 0 112.128-46.08 112.128-112.64 0-3.072 0-6.144-0.512-9.728v-1.024c0-7.168 13.824-13.312 21.504-13.312 7.168 0 13.312 6.144 13.824 13.312 0.512 3.584 0.512 6.656 0.512 10.24 0 62.464-38.4 115.712-92.672 137.728z m-54.272 17.408c-35.328 0-64 28.672-64 64s28.672 64 64 64 64-28.672 64-64-28.672-64-64-64zM901.632 75.264c26.112 17.408 43.52 47.616 43.52 81.92 0 54.272-44.032 98.304-98.304 98.304s-98.304-44.032-98.304-98.304c0-34.304 17.408-64 43.52-81.92-54.272-21.504-92.672-74.752-92.672-137.216 0-3.584 0-7.168 0.512-10.24 0-7.68 10.24-13.824 17.408-13.824 7.68 0 17.408 6.144 17.408 13.824v1.024c-0.512 3.072-0.512 6.144-0.512 9.216 0 66.56 46.08 112.64 112.128 112.64 66.048 0 112.128-46.08 112.128-112.64 0-3.072 0-6.144-0.512-9.728v-1.024c0-7.168 13.824-13.312 21.504-13.312 7.168 0 13.312 6.144 13.824 13.312 0.512 3.584 0.512 6.656 0.512 10.24 0.512 62.464-37.888 115.712-92.16 137.728z m-54.784 17.408c-35.328 0-64 28.672-64 64s28.672 64 64 64 64-28.672 64-64-28.672-64-64-64z"  horiz-adv-x="1024" />

    
    <glyph glyph-name="jiahei" unicode="&#58891;" d="M575.835363 357.92145400000004H314.347453v88.86023h261.48791v1.053679c56.371806 7.37575 97.992111 51.103413 97.992111 102.733665s-41.795918 95.357915-97.992111 102.733665v1.053678H314.347453v-533.688218h261.48791c46.713085 0 89.913908 22.65409 113.270451 59.357229 23.356543 36.703138 23.356543 81.835706 0 118.538844-23.356543 36.878752-66.557366 59.357229-113.270451 59.357228z m22.127251-299.771565H241.11679V717.050249h329.45018v-0.52684c75.338021 5.795232 146.285714-36.527525 176.842394-105.719087 30.55668-69.191562 14.224661-150.149203-40.74224-201.955068 69.367175-47.591151 99.748242-134.870863 74.811182-215.301664-24.937061-80.430801-99.397016-135.397702-183.515692-135.397701zM924.427371-128H99.572629C44.605728-128 0-83.394272 0-28.427370999999994V796.427371C0 851.394272 44.605728 896 99.572629 896h824.854742c54.791288 0 99.572629-44.781341 99.572629-99.572629v-824.854742c0-54.966901-44.605728-99.572629-99.572629-99.572629z m46.361859 152.783399V743.216601c0 54.791288-44.781341 99.572629-99.572629 99.572629H152.783399c-54.966901 0-99.572629-44.605728-99.572629-99.572629v-718.433202c0-54.966901 44.605728-99.572629 99.572629-99.572629h718.433202c54.966901 0 99.572629 44.605728 99.572629 99.572629z"  horiz-adv-x="1024" />

    
    <glyph glyph-name="xiangpica" unicode="&#58893;" d="M1203.607817 401.405814L709.68632 894.486451 0 185.97733600000004 331.635408-126.48645099999999h710.359008v91.317458H766.360322l437.247495 436.574807z m-128.988011 0l-348.116275-347.611759-365.101659 364.42897L709.68632 765.834784l364.933486-364.42897zM367.62424-35.168993L130.837904 187.995402l166.154049 165.817704 364.933486-364.428971-24.384956-24.553128H367.62424z m0 0"  horiz-adv-x="1204" />

    
    <glyph glyph-name="quwu" unicode="&#58895;" d="M828.131025 896c-51.404527 0-98.309454-18.952863-130.624767-51.404527L88.696671 230.331824 13.83968-104.82024l335.152064 74.856991L958.755792 588.8c32.451664 32.451664 51.404527 79.356591 51.404528 130.624767C1010.16032 816.643409 930.94008 896 828.131025 896zM307.540879 15.850866l-158.576831-36.814914v55.904128h-55.904128l36.814914 158.576831h176.438881v-177.666045h1.227164z m41.450865 27.815712V215.74221c0 14.589614-8.999201 23.452463-23.452463 23.452464H157.963249l488.138482 489.229294L841.493475 537.395473 348.991744 43.666578z m577.448735 577.585086l-51.404527-51.404527L684.007457 760.875632l51.404527 51.404528s36.814913 42.405326 98.309454 42.405326c74.856991 0 135.124368-60.267377 135.124368-135.124367-5.590413-42.541678-18.952863-74.856991-42.405327-98.309455z m0 0M390.169907-128H37.019441c-12.817044 0-23.17976 10.499068-23.179761 23.17976 0 12.817044 10.499068 23.17976 23.179761 23.179761h353.150466c12.817044 0 23.17976-10.499068 23.17976-23.179761 0-12.817044-10.499068-23.17976-23.17976-23.17976zM650.601332-128H463.799734c-12.817044 0-23.17976 10.499068-23.179761 23.17976 0 12.817044 10.499068 23.17976 23.179761 23.179761h186.801598c12.817044 0 23.17976-10.499068 23.17976-23.179761 0-12.817044-10.499068-23.17976-23.17976-23.17976zM818.995473-128h-102.263649c-12.817044 0-23.17976 10.499068-23.17976 23.17976 0 12.817044 10.499068 23.17976 23.17976 23.179761h102.263649c12.817044 0 23.17976-10.499068 23.17976-23.179761 0-12.817044-10.499068-23.17976-23.17976-23.17976z"  horiz-adv-x="1024" />

    
    </font>
</defs>
</svg>
